<?xml version="1.0" standalone="no"?>
<!DOCTYPE svg PUBLIC "-//W3C//DTD SVG 20010904//EN"
 "http://www.w3.org/TR/2001/REC-SVG-20010904/DTD/svg10.dtd">
<svg version="1.0" xmlns="http://www.w3.org/2000/svg"
 width="150.000000pt" height="150.000000pt" viewBox="0 0 150.000000 150.000000"
 preserveAspectRatio="xMidYMid meet">
<metadata>
Created by potrace 1.10, written by Peter Selinger 2001-2011
</metadata>
<g transform="translate(0.000000,150.000000) scale(0.050000,-0.050000)"
fill="#000000" stroke="none">
<path d="M1780 2972 c0 -15 -13 -38 -29 -51 -16 -13 -40 -56 -53 -96 -65 -199
-273 -415 -576 -599 -167 -101 -228 -138 -279 -166 -160 -90 -362 -241 -488
-363 -151 -147 -165 -167 -245 -333 -27 -58 -64 -110 -80 -117 -32 -12 -45
-207 -14 -207 20 0 1011 -990 1021 -1020 10 -32 183 -25 183 8 0 15 13 38 29
51 16 13 40 57 53 97 68 205 266 411 576 598 39 24 107 64 149 90 42 25 100
60 130 76 160 90 362 241 488 363 151 147 165 167 245 333 27 58 64 110 80
117 32 12 45 207 14 207 -20 0 -1011 990 -1021 1020 -10 32 -183 25 -183 -8z
m583 -627 c237 -239 438 -453 445 -474 25 -70 -104 -287 -258 -436 -210 -203
-223 -215 -240 -215 -9 0 -44 -21 -78 -46 -34 -25 -84 -56 -112 -70 -27 -14
-90 -51 -140 -84 -49 -33 -103 -65 -118 -73 -228 -111 -572 -416 -632 -561
-35 -83 -104 -166 -139 -166 -30 0 -883 862 -899 909 -25 70 104 287 258 436
210 203 223 215 240 215 9 0 46 23 82 50 36 28 74 50 85 50 11 0 45 21 76 46
32 25 80 57 107 71 28 13 68 36 90 49 22 14 85 51 140 83 172 100 454 374 500
485 35 83 104 166 139 166 12 0 216 -196 454 -435z"/>
<path d="M1896 2440 c-6 -41 -1 -60 17 -60 17 0 27 23 27 60 0 33 -8 60 -18
60 -9 0 -21 -27 -26 -60z"/>
<path d="M1799 2329 c-18 -22 -19 -37 -4 -52 29 -29 65 -4 65 44 0 47 -26 50
-61 8z"/>
<path d="M1693 2227 c-25 -26 -13 -47 27 -47 22 0 40 13 40 30 0 30 -42 41
-67 17z"/>
<path d="M1308 1877 c-135 -43 -155 -68 -179 -225 -19 -132 16 -207 104 -224
105 -20 305 9 365 53 87 64 172 29 172 -72 0 -89 -53 -120 -98 -58 -17 23 -31
28 -39 13 -8 -11 -5 -27 7 -34 81 -50 -50 -135 -156 -101 -44 14 -79 -42 -46
-75 24 -24 180 -26 298 -4 80 15 85 19 74 70 -8 34 -2 62 17 78 79 65 58 247
-34 298 -101 54 -138 59 -218 29 -41 -16 -107 -26 -145 -21 -57 6 -70 1 -70
-28 0 -42 -78 -50 -116 -12 -61 61 67 236 173 236 86 0 105 19 70 72 -17 26
-37 47 -44 46 -7 -1 -68 -20 -135 -41z"/>
<path d="M1300 822 c-35 -10 -50 -28 -48 -58 1 -33 -10 -44 -45 -44 -29 0 -47
-12 -47 -30 0 -17 -22 -50 -50 -74 -50 -43 -68 -116 -30 -116 11 0 20 23 20
50 0 37 11 50 40 50 22 0 40 8 40 19 0 27 131 161 157 161 13 0 23 14 23 30 0
17 -2 29 -5 28 -3 -1 -27 -8 -55 -16z"/>
</g>
</svg>
