<?xml version="1.0" standalone="no"?>
<!DOCTYPE svg PUBLIC "-//W3C//DTD SVG 20010904//EN"
 "http://www.w3.org/TR/2001/REC-SVG-20010904/DTD/svg10.dtd">
<svg version="1.0" xmlns="http://www.w3.org/2000/svg"
 width="150.000000pt" height="131.000000pt" viewBox="0 0 150.000000 131.000000"
 preserveAspectRatio="xMidYMid meet">
<metadata>
Created by potrace 1.10, written by Peter Selinger 2001-2011
</metadata>
<g transform="translate(0.000000,131.000000) scale(0.050000,-0.050000)"
fill="#000000" stroke="none">
<path d="M1116 2580 c-18 -21 -76 -44 -129 -51 -53 -8 -150 -41 -216 -72 -67
-31 -132 -57 -146 -57 -14 0 -25 -8 -25 -18 0 -9 -25 -28 -55 -41 -138 -58
-431 -388 -454 -511 -9 -49 -27 -78 -52 -85 -50 -12 -61 -485 -12 -485 26 0
73 -79 73 -126 2 -77 296 -400 427 -467 164 -85 160 -324 -8 -496 -11 -10 -19
-53 -19 -95 l0 -76 98 0 c77 0 99 8 107 36 5 21 42 46 89 60 44 13 96 42 116
64 20 22 44 40 54 40 10 0 55 37 102 82 111 108 157 124 324 110 245 -21 618
42 822 139 56 27 109 49 118 49 106 0 568 449 570 554 0 47 47 126 73 126 49
0 38 473 -12 485 -25 7 -43 36 -52 85 -23 123 -316 453 -454 511 -30 13 -55
32 -55 41 0 10 -11 18 -25 18 -14 0 -79 26 -146 57 -66 31 -163 64 -216 72
-53 7 -113 31 -134 52 -58 58 -710 56 -763 -1z m816 -190 c84 -27 165 -50 179
-50 30 0 199 -87 248 -126 17 -14 57 -39 89 -55 84 -42 242 -229 311 -369 213
-429 -140 -1010 -697 -1149 -39 -10 -112 -33 -161 -51 -70 -25 -162 -33 -408
-32 -339 0 -363 -5 -463 -103 -161 -159 -209 -151 -206 34 2 155 -11 175 -207
303 -391 255 -541 656 -375 1000 61 127 292 388 342 388 13 0 37 13 55 29 45
41 217 131 249 131 15 0 93 22 174 49 220 73 648 73 870 1z"/>
<path d="M1255 2126 c-97 -15 -59 -42 70 -50 141 -9 180 -1 169 31 -7 24 -143
34 -239 19z"/>
<path d="M921 2021 c-26 -16 -25 -21 5 -32 44 -17 174 7 174 32 0 24 -141 24
-179 0z"/>
<path d="M760 1910 c0 -32 18 -37 68 -18 49 19 38 48 -18 48 -31 0 -50 -11
-50 -30z"/>
<path d="M588 1751 c-14 -36 8 -76 33 -60 26 16 24 89 -2 89 -11 0 -25 -13
-31 -29z"/>
<path d="M494 1598 c-14 -51 3 -102 28 -87 23 15 24 129 0 129 -9 0 -22 -19
-28 -42z"/>
</g>
</svg>
