<?xml version="1.0" standalone="no"?>
<!DOCTYPE svg PUBLIC "-//W3C//DTD SVG 20010904//EN"
 "http://www.w3.org/TR/2001/REC-SVG-20010904/DTD/svg10.dtd">
<svg version="1.0" xmlns="http://www.w3.org/2000/svg"
 width="150.000000pt" height="218.000000pt" viewBox="0 0 150.000000 218.000000"
 preserveAspectRatio="xMidYMid meet">
<metadata>
Created by potrace 1.10, written by Peter Selinger 2001-2011
</metadata>
<g transform="translate(0.000000,218.000000) scale(0.050000,-0.050000)"
fill="#000000" stroke="none">
<path d="M1120 4321 c0 -28 -29 -48 -115 -79 -63 -23 -142 -57 -175 -75 -33
-19 -99 -55 -147 -80 -95 -50 -348 -302 -398 -397 -17 -33 -52 -88 -78 -122
-26 -34 -47 -72 -47 -84 0 -72 -86 -244 -121 -244 -37 0 -39 -18 -39 -340 0
-322 2 -340 38 -340 39 0 76 -76 118 -240 10 -38 42 -105 72 -149 29 -43 59
-101 66 -130 7 -28 32 -78 57 -111 24 -33 62 -100 83 -150 22 -49 54 -102 73
-117 18 -16 33 -39 33 -53 0 -13 36 -95 80 -182 44 -87 80 -177 80 -200 0 -22
23 -85 51 -140 27 -54 63 -164 79 -245 16 -80 46 -175 68 -210 21 -34 52 -118
67 -186 30 -127 126 -270 226 -336 27 -18 49 -50 49 -71 0 -38 14 -40 260 -40
216 0 260 5 260 30 0 16 58 88 128 161 104 106 131 148 142 215 8 46 36 132
63 190 27 59 62 171 78 250 15 79 51 188 78 242 28 55 51 115 51 135 0 47 60
197 79 197 8 0 27 37 41 81 15 45 57 128 94 185 36 56 66 113 66 125 0 13 25
58 57 101 31 43 62 101 69 130 7 28 37 86 66 129 30 44 62 111 72 149 42 164
79 240 118 240 64 0 58 674 -6 684 -36 5 -53 33 -87 141 -23 75 -60 160 -82
190 -23 30 -55 82 -72 115 -50 95 -303 347 -398 397 -48 25 -114 61 -147 80
-33 18 -112 52 -175 75 -86 31 -115 51 -115 79 0 37 -18 39 -380 39 -362 0
-380 -2 -380 -39z m761 -273 c38 -22 113 -56 166 -74 181 -62 498 -370 561
-547 15 -42 48 -117 75 -167 74 -142 71 -609 -6 -740 -28 -49 -58 -119 -66
-154 -8 -36 -37 -99 -65 -140 -28 -41 -62 -107 -76 -146 -14 -39 -48 -105 -77
-147 -28 -42 -57 -96 -65 -120 -7 -23 -39 -81 -71 -127 -31 -46 -57 -93 -57
-105 0 -95 -45 -101 -700 -101 -661 0 -700 6 -700 106 0 14 -26 62 -57 105
-31 43 -68 110 -80 148 -13 38 -41 88 -63 111 -21 22 -51 77 -67 121 -15 44
-51 114 -79 155 -28 41 -57 104 -65 140 -8 35 -38 105 -66 154 -70 119 -80
598 -16 720 20 39 54 114 76 169 82 204 382 501 571 565 53 18 116 46 142 62
120 78 659 86 785 12z m132 -2852 c66 -67 -89 -156 -271 -156 -99 0 -90 -36
13 -51 239 -35 236 -297 -5 -351 -100 -22 -106 -26 -65 -47 115 -57 104 -252
-17 -303 -214 -89 -466 17 -345 145 41 44 42 46 5 60 -72 25 -204 146 -225
206 -28 83 17 132 157 168 l110 28 -104 15 c-225 32 -387 232 -246 305 83 43
948 26 993 -19z"/>
<path d="M1304 3637 c-79 -22 -68 -51 28 -69 94 -17 183 20 148 62 -28 34 -78
36 -176 7z"/>
<path d="M1060 3502 c-56 -10 -69 -20 -63 -52 9 -55 6 -54 99 -15 122 51 100
91 -36 67z"/>
<path d="M873 3365 c-19 -32 -22 -172 -3 -178 24 -8 94 150 78 176 -13 21 -62
23 -75 2z"/>
<path d="M721 3045 c-27 -97 -26 -132 3 -161 37 -37 76 11 76 97 0 149 -45
186 -79 64z"/>
</g>
</svg>
