<?xml version="1.0" standalone="no"?>
<!DOCTYPE svg PUBLIC "-//W3C//DTD SVG 20010904//EN"
 "http://www.w3.org/TR/2001/REC-SVG-20010904/DTD/svg10.dtd">
<svg version="1.0" xmlns="http://www.w3.org/2000/svg"
 width="150.000000pt" height="150.000000pt" viewBox="0 0 150.000000 150.000000"
 preserveAspectRatio="xMidYMid meet">
<metadata>
Created by potrace 1.10, written by Peter Selinger 2001-2011
</metadata>
<g transform="translate(0.000000,150.000000) scale(0.050000,-0.050000)"
fill="#000000" stroke="none">
<path d="M670 2875 c-20 -175 -20 -175 -270 -175 -208 0 -217 -2 -290 -60 -42
-33 -83 -60 -93 -60 -9 0 -17 -549 -17 -1220 0 -1000 5 -1220 27 -1220 32 0
113 -83 113 -116 0 -49 2713 -33 2726 16 5 22 38 55 72 75 l62 35 0 1215 c0
668 -8 1215 -17 1215 -10 0 -51 27 -93 60 -73 58 -82 60 -290 60 -250 0 -250
0 -270 175 l-14 125 -66 0 -66 0 -14 -125 c-20 -176 -19 -175 -284 -175 -266
0 -306 14 -306 108 0 143 -21 192 -80 192 -59 0 -80 -49 -80 -192 0 -94 -40
-108 -306 -108 -265 0 -264 -1 -284 175 l-14 125 -66 0 -66 0 -14 -125z m-3
-470 c16 -125 17 -125 83 -125 66 0 67 0 83 125 l17 125 257 6 c291 6 313 -2
313 -117 0 -110 17 -139 80 -139 63 0 80 29 80 138 0 41 11 85 24 98 34 34
534 34 544 -1 4 -14 15 -70 25 -125 16 -93 21 -100 80 -106 l63 -6 17 126 17
126 207 6 c136 3 217 -3 235 -18 38 -31 42 -2276 4 -2314 -35 -35 -2557 -35
-2592 0 -35 35 -35 2277 1 2313 17 17 88 23 235 19 l210 -6 17 -125z"/>
<path d="M674 1847 c-23 -23 -16 -197 10 -223 14 -14 83 -24 170 -24 164 0
175 12 162 172 l-6 78 -161 6 c-88 3 -167 -1 -175 -9z"/>
<path d="M1334 1847 c-23 -23 -16 -197 10 -223 35 -35 285 -32 315 4 13 16 21
71 17 125 l-6 97 -161 6 c-88 3 -167 -1 -175 -9z"/>
<path d="M1994 1847 c-17 -17 -19 -172 -2 -215 10 -25 44 -32 158 -32 173 0
195 18 186 153 l-6 97 -161 6 c-88 3 -167 -1 -175 -9z"/>
<path d="M682 1372 c-14 -16 -22 -70 -18 -125 l6 -97 170 0 170 0 0 120 0 120
-152 6 c-114 4 -158 -2 -176 -24z"/>
<path d="M1341 1372 c-13 -16 -21 -71 -17 -125 l6 -97 170 0 170 0 6 97 c4 54
-4 109 -17 125 -33 39 -285 39 -318 0z"/>
<path d="M1988 1372 c-6 -15 -8 -71 -4 -125 l6 -97 170 0 170 0 6 97 c4 54 -4
109 -17 125 -33 39 -316 40 -331 0z"/>
<path d="M674 907 c-23 -23 -16 -197 10 -223 27 -27 272 -33 312 -7 18 11 24
52 20 125 l-6 108 -161 6 c-88 3 -167 -1 -175 -9z"/>
<path d="M1334 907 c-23 -23 -16 -197 10 -223 35 -35 285 -32 315 4 13 16 21
71 17 125 l-6 97 -161 6 c-88 3 -167 -1 -175 -9z"/>
<path d="M1994 907 c-8 -7 -14 -61 -14 -118 0 -123 9 -129 189 -129 153 0 176
21 167 153 l-6 97 -161 6 c-88 3 -167 -1 -175 -9z"/>
</g>
</svg>
