<?xml version="1.0" standalone="no"?>
<!DOCTYPE svg PUBLIC "-//W3C//DTD SVG 20010904//EN"
 "http://www.w3.org/TR/2001/REC-SVG-20010904/DTD/svg10.dtd">
<svg version="1.0" xmlns="http://www.w3.org/2000/svg"
 width="150.000000pt" height="127.000000pt" viewBox="0 0 150.000000 127.000000"
 preserveAspectRatio="xMidYMid meet">
<metadata>
Created by potrace 1.10, written by Peter Selinger 2001-2011
</metadata>
<g transform="translate(0.000000,127.000000) scale(0.050000,-0.050000)"
fill="#000000" stroke="none">
<path d="M900 2514 c0 -15 -26 -51 -57 -81 -32 -30 -68 -89 -80 -132 -73 -241
-134 -291 -408 -329 -153 -22 -184 -33 -241 -88 -36 -35 -77 -64 -90 -64 -18
0 -24 -197 -24 -830 0 -630 6 -830 24 -830 33 0 136 -101 136 -134 0 -21 247
-26 1340 -26 1093 0 1340 5 1340 26 0 33 103 134 136 134 18 0 24 200 24 830
0 633 -6 830 -24 830 -13 0 -54 29 -90 64 -57 55 -88 66 -241 88 -274 38 -335
88 -408 329 -12 43 -48 102 -80 132 -31 30 -57 66 -57 81 0 21 -118 26 -600
26 -482 0 -600 -5 -600 -26z m1183 -264 c30 -55 68 -146 85 -202 46 -149 42
-147 490 -238 70 -14 135 -38 144 -53 29 -45 23 -1524 -6 -1553 -35 -35 -2557
-35 -2592 0 -29 29 -35 1508 -6 1553 9 15 74 39 144 53 444 90 444 90 486 227
30 98 103 255 137 298 16 20 140 24 543 20 l522 -5 53 -100z"/>
<path d="M1289 1833 c-21 -15 -72 -38 -112 -51 -319 -104 -504 -611 -343 -944
282 -587 1058 -588 1331 -3 159 342 -22 843 -342 947 -40 13 -91 36 -112 51
-54 37 -368 37 -422 0z m461 -186 c544 -290 360 -1087 -250 -1087 -611 0 -794
797 -250 1087 143 76 357 76 500 0z"/>
<path d="M1371 1462 c-6 -10 4 -23 22 -30 42 -16 111 5 96 29 -15 24 -103 25
-118 1z"/>
<path d="M1248 1371 c-19 -49 13 -78 42 -37 15 19 22 42 17 51 -15 25 -47 17
-59 -14z"/>
<path d="M1152 1232 c-14 -57 4 -117 30 -101 23 15 23 149 0 149 -10 0 -23
-22 -30 -48z"/>
</g>
</svg>
