<?xml version="1.0" standalone="no"?>
<!DOCTYPE svg PUBLIC "-//W3C//DTD SVG 20010904//EN"
 "http://www.w3.org/TR/2001/REC-SVG-20010904/DTD/svg10.dtd">
<svg version="1.0" xmlns="http://www.w3.org/2000/svg"
 width="150.000000pt" height="136.000000pt" viewBox="0 0 150.000000 136.000000"
 preserveAspectRatio="xMidYMid meet">
<metadata>
Created by potrace 1.10, written by Peter Selinger 2001-2011
</metadata>
<g transform="translate(0.000000,136.000000) scale(0.050000,-0.050000)"
fill="#000000" stroke="none">
<path d="M1927 2684 c-12 -20 -62 -48 -110 -62 -103 -31 -82 -14 -403 -324
-888 -860 -1292 -1273 -1325 -1354 -18 -46 -46 -84 -61 -84 -22 0 -28 -42 -28
-200 0 -158 6 -200 28 -200 15 0 42 -35 59 -77 39 -99 197 -257 296 -296 42
-17 77 -44 77 -59 0 -49 392 -40 405 10 6 23 36 43 76 52 87 19 1472 1377
1611 1580 245 357 -259 834 -622 589 -250 -168 -1176 -1144 -1127 -1187 63
-57 93 -33 599 472 635 635 612 616 762 616 170 0 276 -107 276 -281 0 -147
30 -111 -748 -879 -350 -347 -652 -645 -670 -663 -413 -417 -1098 104 -767
584 56 82 1324 1339 1475 1463 194 159 460 194 675 90 111 -53 315 -225 315
-265 0 -11 20 -55 44 -99 36 -64 45 -113 45 -240 1 -272 -25 -311 -646 -935
-572 -575 -572 -575 -552 -637 29 -91 112 -24 689 558 511 515 574 585 606
679 21 62 48 105 65 105 50 0 42 472 -8 485 -21 5 -44 36 -52 67 -38 154 -280
394 -447 444 -49 15 -84 38 -84 55 0 48 -422 42 -453 -7z"/>
</g>
</svg>
