<?xml version="1.0" standalone="no"?>
<!DOCTYPE svg PUBLIC "-//W3C//DTD SVG 20010904//EN"
 "http://www.w3.org/TR/2001/REC-SVG-20010904/DTD/svg10.dtd">
<svg version="1.0" xmlns="http://www.w3.org/2000/svg"
 width="150.000000pt" height="218.000000pt" viewBox="0 0 150.000000 218.000000"
 preserveAspectRatio="xMidYMid meet">
<metadata>
Created by potrace 1.10, written by Peter Selinger 2001-2011
</metadata>
<g transform="translate(0.000000,218.000000) scale(0.050000,-0.050000)"
fill="#000000" stroke="none">
<path d="M700 4313 c0 -26 -25 -69 -58 -98 -60 -53 -68 -81 -94 -335 -7 -71
-34 -201 -60 -287 -26 -87 -53 -218 -60 -291 -16 -162 -69 -272 -201 -422 -25
-27 -65 -113 -91 -190 -37 -113 -55 -141 -91 -146 -71 -10 -71 -718 0 -728 36
-5 54 -33 91 -146 26 -77 67 -162 91 -190 131 -145 183 -273 203 -496 7 -80
34 -217 60 -304 26 -87 54 -224 61 -304 15 -158 35 -211 92 -252 20 -15 37
-48 37 -75 l0 -49 680 0 c649 0 680 2 680 37 0 20 26 64 58 98 49 51 61 84 72
198 7 75 26 187 42 247 69 260 84 338 97 483 14 157 65 268 197 427 28 34 61
101 74 150 42 156 94 236 184 282 46 24 101 64 122 90 20 27 54 48 75 48 34 0
39 15 39 120 0 105 -5 120 -39 120 -21 0 -55 21 -75 48 -21 26 -76 66 -122 90
-90 46 -142 126 -184 282 -13 50 -44 113 -69 140 -117 131 -176 281 -204 520
-15 127 -44 289 -66 362 -22 72 -50 198 -61 279 -20 143 -61 239 -100 239 -11
0 -20 23 -20 50 l0 50 -680 0 -680 0 0 -47z m1207 -250 c43 -47 124 -319 142
-476 25 -214 -41 -243 -299 -130 -182 80 -587 79 -752 -2 -241 -119 -345 -64
-286 151 19 68 49 193 66 276 50 234 7 218 591 218 464 0 507 -3 538 -37z
m-155 -845 c43 -28 102 -57 130 -64 50 -13 280 -184 295 -221 4 -9 34 -47 65
-83 32 -36 77 -109 101 -163 23 -53 57 -114 74 -134 27 -30 34 -95 40 -334 l7
-297 -72 -150 c-40 -82 -72 -155 -72 -163 0 -8 -30 -48 -67 -89 -37 -41 -71
-82 -75 -92 -16 -37 -245 -209 -296 -222 -28 -7 -87 -36 -131 -64 -115 -77
-662 -80 -767 -5 -36 25 -96 55 -134 65 -125 35 -435 339 -463 455 -7 29 -36
94 -65 143 -80 138 -79 604 2 764 29 58 64 135 77 171 34 94 324 377 415 406
41 13 106 44 146 69 142 92 655 97 790 8z m-750 -2322 c130 -68 582 -69 718
-1 317 157 385 75 267 -324 -26 -87 -47 -176 -47 -198 0 -108 -25 -113 -569
-113 -579 0 -555 -7 -600 180 -17 72 -45 179 -61 239 -78 286 21 360 292 217z"/>
<path d="M1294 3088 c-8 -8 -14 -54 -14 -102 l0 -88 85 6 85 6 0 90 c0 89 -99
144 -156 88z"/>
<path d="M723 2835 c-31 -31 -29 -99 6 -146 27 -38 30 -37 99 30 39 37 69 71
66 74 -33 33 -151 62 -171 42z"/>
<path d="M1804 2688 c-24 -17 -44 -43 -44 -59 0 -16 -16 -29 -35 -29 -19 0
-75 -37 -125 -81 -49 -44 -115 -94 -145 -110 -30 -17 -55 -39 -55 -50 0 -11
-31 -39 -70 -62 -116 -68 -97 -217 28 -217 65 0 84 13 163 110 49 61 127 157
174 214 47 57 85 115 85 129 0 14 18 35 40 47 58 31 85 91 53 117 -19 16 -38
14 -69 -9z"/>
<path d="M465 2267 c-49 -21 -31 -165 23 -178 109 -28 142 -7 142 91 0 92 -69
128 -165 87z"/>
<path d="M2100 2180 l0 -102 85 6 85 6 0 90 0 90 -85 6 -85 6 0 -102z"/>
<path d="M721 1661 c-58 -108 -6 -171 105 -126 l77 30 -66 68 c-75 78 -88 81
-116 28z"/>
<path d="M1890 1640 c-61 -63 -57 -77 33 -115 80 -34 126 22 92 111 -30 79
-52 80 -125 4z"/>
<path d="M1288 1433 c-43 -112 17 -191 125 -164 92 23 60 179 -38 187 -52 5
-79 -3 -87 -23z"/>
</g>
</svg>
