<?xml version="1.0" standalone="no"?>
<!DOCTYPE svg PUBLIC "-//W3C//DTD SVG 20010904//EN"
 "http://www.w3.org/TR/2001/REC-SVG-20010904/DTD/svg10.dtd">
<svg version="1.0" xmlns="http://www.w3.org/2000/svg"
 width="150.000000pt" height="108.000000pt" viewBox="0 0 150.000000 108.000000"
 preserveAspectRatio="xMidYMid meet">
<metadata>
Created by potrace 1.10, written by Peter Selinger 2001-2011
</metadata>
<g transform="translate(0.000000,108.000000) scale(0.050000,-0.050000)"
fill="#000000" stroke="none">
<path d="M1360 2132 c0 -16 -43 -45 -95 -64 -118 -44 -261 -160 -356 -289 -70
-96 -76 -99 -171 -99 -93 0 -160 -22 -276 -89 -86 -50 -161 -206 -162 -337 0
-109 -5 -121 -87 -210 -48 -52 -103 -124 -121 -160 -19 -36 -47 -71 -63 -77
-41 -16 -43 -387 -2 -387 15 0 43 -36 63 -80 42 -94 171 -219 265 -258 36 -15
65 -39 65 -54 0 -24 170 -28 1040 -28 884 0 1040 4 1040 28 0 16 40 44 89 63
112 42 265 191 313 304 20 47 51 91 67 98 50 19 45 398 -5 425 -21 11 -47 54
-60 96 -28 94 -190 246 -344 322 -64 31 -120 75 -134 104 -47 101 -83 191 -97
247 -24 95 -281 337 -404 380 -59 21 -105 49 -105 65 0 22 -46 28 -230 28
-185 0 -230 -6 -230 -28z m494 -195 c20 -18 55 -38 78 -45 118 -36 297 -309
327 -498 22 -131 35 -147 141 -166 39 -6 94 -29 124 -50 30 -21 62 -38 72 -38
20 0 93 -81 163 -180 57 -81 82 -331 42 -420 -65 -143 -147 -236 -275 -311
l-85 -50 -995 5 -996 6 -76 54 c-229 161 -262 553 -58 683 15 9 57 43 95 76
l68 60 -12 146 c-12 145 -12 146 58 222 l70 77 162 -4 c162 -3 263 54 263 150
0 41 196 217 302 272 129 67 460 73 532 11z"/>
</g>
</svg>
