<?xml version="1.0" standalone="no"?>
<!DOCTYPE svg PUBLIC "-//W3C//DTD SVG 20010904//EN"
 "http://www.w3.org/TR/2001/REC-SVG-20010904/DTD/svg10.dtd">
<svg version="1.0" xmlns="http://www.w3.org/2000/svg"
 width="150.000000pt" height="171.000000pt" viewBox="0 0 150.000000 171.000000"
 preserveAspectRatio="xMidYMid meet">
<metadata>
Created by potrace 1.10, written by Peter Selinger 2001-2011
</metadata>
<g transform="translate(0.000000,171.000000) scale(0.050000,-0.050000)"
fill="#000000" stroke="none">
<path d="M440 3393 c0 -14 -22 -46 -48 -71 -27 -25 -54 -76 -61 -112 -36 -192
-202 -430 -300 -430 -26 0 -31 -39 -31 -270 0 -249 3 -270 37 -270 20 0 53
-18 73 -40 20 -22 61 -40 91 -40 98 0 132 -53 156 -240 12 -93 30 -211 41
-260 10 -50 29 -233 41 -406 12 -174 35 -385 51 -470 16 -85 38 -257 48 -384
21 -251 31 -291 74 -308 15 -6 28 -29 28 -51 0 -41 9 -41 860 -41 851 0 860 0
860 41 0 22 13 45 28 51 43 17 53 57 74 308 10 127 32 299 48 384 16 85 39
296 51 470 12 173 31 356 41 406 11 49 29 167 41 260 24 187 58 240 156 240
30 0 71 18 91 40 20 22 53 40 73 40 34 0 37 21 37 270 0 231 -5 270 -31 270
-98 0 -264 238 -300 430 -7 36 -34 87 -61 112 -26 25 -48 57 -48 71 0 22 -193
27 -1060 27 -867 0 -1060 -5 -1060 -27z m2022 -208 c82 -102 128 -238 95 -278
-33 -40 -2082 -40 -2115 0 -24 30 -18 61 35 173 71 152 -17 140 1023 140 865
0 936 -3 962 -35z m314 -529 c31 -31 31 -261 0 -292 -35 -35 -2517 -35 -2552
0 -31 31 -31 261 0 292 35 35 2517 35 2552 0z m-326 -537 c33 -33 25 -223 -12
-282 -24 -39 -1763 -50 -1838 -12 -59 31 -102 235 -60 285 49 59 1852 67 1910
9z m-49 -436 c40 -32 43 -43 23 -101 -20 -57 -33 -178 -76 -735 -18 -232 40
-217 -848 -217 -898 0 -830 -20 -849 247 -31 421 -54 644 -72 706 -40 138 -47
137 921 137 800 0 859 -2 901 -37z m-141 -1173 c31 -38 18 -235 -19 -279 -39
-47 -1443 -47 -1482 0 -37 44 -50 241 -19 279 37 45 1483 45 1520 0z"/>
</g>
</svg>
