<?xml version="1.0" standalone="no"?>
<!DOCTYPE svg PUBLIC "-//W3C//DTD SVG 20010904//EN"
 "http://www.w3.org/TR/2001/REC-SVG-20010904/DTD/svg10.dtd">
<svg version="1.0" xmlns="http://www.w3.org/2000/svg"
 width="150.000000pt" height="171.000000pt" viewBox="0 0 150.000000 171.000000"
 preserveAspectRatio="xMidYMid meet">
<metadata>
Created by potrace 1.10, written by Peter Selinger 2001-2011
</metadata>
<g transform="translate(0.000000,171.000000) scale(0.050000,-0.050000)"
fill="#000000" stroke="none">
<path d="M980 3391 c0 -32 -70 -54 -276 -91 -70 -12 -155 -40 -190 -61 -35
-21 -76 -39 -91 -39 -57 0 -259 -153 -312 -235 -30 -47 -67 -85 -83 -85 -24 0
-28 -177 -28 -1170 0 -993 4 -1170 28 -1170 16 0 53 -38 83 -85 53 -82 255
-235 312 -235 15 0 56 -18 91 -39 35 -21 120 -49 190 -61 206 -37 276 -59 276
-91 0 -25 77 -29 520 -29 443 0 520 4 520 29 0 32 70 54 276 91 70 12 155 40
190 61 35 21 76 39 91 39 57 0 259 153 312 235 30 47 67 85 83 85 24 0 28 177
28 1170 0 993 -4 1170 -28 1170 -16 0 -53 38 -83 85 -53 82 -255 235 -312 235
-15 0 -56 18 -91 39 -35 21 -120 49 -190 61 -206 37 -276 59 -276 91 0 25 -77
29 -520 29 -443 0 -520 -4 -520 -29z m1141 -226 c61 -22 151 -47 200 -55 49
-7 112 -29 139 -47 28 -18 82 -48 120 -67 385 -189 224 -547 -299 -668 -61
-15 -160 -40 -220 -57 -157 -44 -965 -44 -1122 0 -60 17 -163 44 -229 59 -516
123 -673 484 -290 667 39 19 93 48 120 66 28 18 90 40 140 48 49 8 126 27 170
44 210 77 1065 84 1271 10z m-1731 -905 c13 0 65 -22 114 -48 50 -26 157 -58
238 -71 82 -13 198 -38 258 -56 156 -48 839 -48 1000 0 61 18 176 43 258 56
81 13 188 45 238 71 49 26 101 48 114 48 14 0 47 18 75 40 133 104 171 -367
39 -491 -53 -50 -53 -51 -14 -79 88 -62 90 -69 90 -249 0 -197 -18 -266 -85
-323 -45 -38 -45 -38 -5 -67 95 -70 95 -67 87 -293 l-8 -216 -88 -76 c-48 -42
-111 -85 -139 -96 -29 -11 -74 -35 -102 -53 -27 -18 -86 -38 -130 -46 -44 -7
-138 -33 -210 -57 -197 -67 -1043 -67 -1240 0 -71 24 -166 50 -210 57 -44 8
-102 28 -130 46 -27 18 -73 42 -102 53 -28 11 -91 54 -139 96 l-88 76 -8 209
-8 209 67 62 67 62 -44 36 c-112 91 -126 446 -22 543 l64 59 -53 49 c-130 121
-91 592 41 489 28 -22 61 -40 75 -40z"/>
<path d="M2400 1931 c0 -68 3 -71 71 -71 69 0 71 3 65 65 -10 105 -136 111
-136 6z"/>
<path d="M340 1674 c0 -49 142 -79 169 -35 15 24 -4 34 -94 51 -60 12 -75 8
-75 -16z"/>
<path d="M2544 1683 c-54 -15 -61 -50 -13 -60 54 -11 129 16 129 47 0 31 -37
35 -116 13z"/>
<path d="M571 1562 c-16 -26 39 -42 146 -42 120 1 171 29 82 47 -92 19 -215
16 -228 -5z"/>
<path d="M2180 1562 c-44 -12 -46 -16 -13 -28 45 -17 198 -18 241 -2 98 38
-105 64 -228 30z"/>
<path d="M1040 1461 c-98 -29 96 -51 460 -51 364 0 558 22 460 51 -27 8 -234
15 -460 15 -225 0 -432 -7 -460 -15z"/>
<path d="M2400 1291 c0 -68 3 -71 71 -71 105 0 99 126 -6 136 -62 6 -65 4 -65
-65z"/>
<path d="M340 1034 c0 -49 142 -79 169 -35 15 24 -4 34 -94 51 -60 12 -75 8
-75 -16z"/>
<path d="M2544 1043 c-54 -15 -61 -50 -13 -60 54 -11 129 16 129 47 0 31 -37
35 -116 13z"/>
<path d="M571 922 c-16 -26 39 -42 146 -42 120 1 171 29 82 47 -92 19 -215 16
-228 -5z"/>
<path d="M2180 922 c-44 -12 -46 -16 -13 -28 45 -17 198 -18 241 -2 98 38
-105 64 -228 30z"/>
<path d="M1050 821 l-60 -15 60 -18 c77 -23 847 -24 900 0 38 17 38 18 -10 33
-63 19 -810 19 -890 0z"/>
<path d="M2400 640 c0 -81 1 -82 65 -76 60 5 65 12 65 76 0 64 -5 71 -65 76
-64 6 -65 5 -65 -76z"/>
</g>
</svg>
