<?xml version="1.0" standalone="no"?>
<!DOCTYPE svg PUBLIC "-//W3C//DTD SVG 20010904//EN"
 "http://www.w3.org/TR/2001/REC-SVG-20010904/DTD/svg10.dtd">
<svg version="1.0" xmlns="http://www.w3.org/2000/svg"
 width="150.000000pt" height="113.000000pt" viewBox="0 0 150.000000 113.000000"
 preserveAspectRatio="xMidYMid meet">
<metadata>
Created by potrace 1.10, written by Peter Selinger 2001-2011
</metadata>
<g transform="translate(0.000000,113.000000) scale(0.050000,-0.050000)"
fill="#000000" stroke="none">
<path d="M577 2240 c-10 -30 -540 -560 -560 -560 -29 0 -20 -176 9 -184 14 -3
133 -122 264 -265 130 -142 251 -273 269 -291 17 -18 153 -163 301 -320 149
-158 331 -350 405 -426 74 -77 135 -152 135 -167 0 -19 29 -27 100 -27 71 0
100 8 100 27 0 15 61 90 135 167 74 76 257 268 405 426 149 157 284 302 301
320 18 18 139 149 269 291 131 143 250 262 264 265 29 8 38 184 9 184 -20 0
-550 530 -560 560 -9 27 -1837 27 -1846 0z m457 -211 l37 -52 52 41 c46 36 56
38 77 12 35 -42 93 -37 140 10 31 31 67 40 160 40 93 0 129 -9 160 -40 47 -47
105 -52 140 -10 21 26 31 24 77 -12 l52 -41 37 52 c50 68 192 73 256 9 33 -33
58 -40 114 -31 85 14 465 -327 422 -379 -54 -65 -384 -49 -422 21 -25 43 -53
39 -95 -13 -30 -37 -56 -43 -171 -43 -115 0 -141 6 -171 43 -48 60 -169 60
-233 1 -36 -35 -70 -44 -166 -44 -96 0 -130 9 -166 44 -64 59 -185 59 -233 -1
-30 -37 -56 -43 -171 -43 -115 0 -141 6 -171 43 -43 54 -61 55 -103 6 -57 -66
-326 -80 -416 -22 -60 40 336 401 424 387 56 -9 81 -2 114 31 64 64 206 59
256 -9z m-428 -528 c28 -10 58 -45 71 -80 25 -73 73 -84 55 -12 -27 107 246
156 456 82 67 -24 82 -24 106 0 21 21 79 29 206 29 127 0 185 -8 206 -29 24
-24 39 -24 106 0 210 74 483 25 456 -82 -18 -72 30 -61 55 12 32 91 229 137
338 78 55 -29 50 -45 -46 -145 -47 -48 -197 -206 -334 -351 -249 -263 -321
-311 -321 -214 0 64 -33 82 -59 33 -26 -48 -7 -102 35 -102 25 0 27 -5 8 -24
-20 -20 -33 -20 -64 0 -54 33 -54 33 -80 -47 -14 -41 -44 -81 -72 -93 -26 -12
-53 -39 -59 -59 -14 -44 -46 -47 -101 -8 -46 32 -77 31 -142 -5 -60 -33 -81
-30 -95 13 -6 20 -33 47 -59 59 -28 12 -58 52 -72 93 -26 79 -26 80 -83 49
-30 -16 -47 -16 -63 0 -16 16 -13 22 10 22 42 0 61 54 35 102 -26 49 -59 31
-59 -33 0 -97 -72 -49 -321 214 -137 145 -287 303 -334 351 -47 49 -85 96 -85
106 0 54 202 81 306 41z"/>
<path d="M773 1952 c-5 -16 7 -44 28 -63 50 -46 50 -102 -1 -115 -33 -8 -61
-74 -32 -74 32 0 72 29 72 52 0 43 115 35 175 -12 60 -48 85 -51 85 -10 0 19
-19 30 -52 30 -51 0 -52 3 -39 90 17 115 6 132 -70 104 -46 -18 -69 -17 -99 1
-50 31 -53 31 -67 -3z"/>
<path d="M1340 1943 c0 -22 18 -43 40 -49 24 -6 40 -27 40 -51 0 -23 -18 -51
-40 -63 -22 -12 -40 -35 -40 -51 0 -37 22 -37 71 0 22 17 62 30 89 30 28 0 67
-13 89 -30 49 -37 71 -37 71 0 0 16 -18 39 -40 51 -22 12 -40 40 -40 63 0 24
16 45 40 51 22 6 40 27 40 49 0 36 -4 36 -59 8 -32 -17 -78 -31 -101 -31 -23
0 -69 14 -101 31 -55 28 -59 28 -59 -8z"/>
<path d="M1989 1954 c-5 -13 -7 -60 -4 -104 4 -70 -1 -81 -40 -86 -25 -4 -45
-20 -45 -35 0 -39 25 -36 83 9 27 21 75 42 108 45 39 5 61 20 66 46 4 21 24
52 45 70 54 45 21 96 -39 58 -33 -20 -55 -21 -104 -3 -47 18 -63 18 -70 0z"/>
<path d="M2160 1752 c0 -28 58 -61 75 -43 6 5 5 23 -2 40 -15 39 -73 41 -73 3z"/>
<path d="M1255 1429 c-21 -22 -18 -273 4 -308 13 -21 22 -9 32 47 16 83 -12
285 -36 261z"/>
<path d="M1712 1377 c-17 -88 -14 -222 6 -254 26 -42 42 21 42 167 0 138 -27
188 -48 87z"/>
<path d="M772 1323 c-20 -32 6 -107 33 -98 35 12 38 43 8 84 -19 26 -31 30
-41 14z"/>
<path d="M2181 1303 c-23 -43 -14 -83 18 -83 27 0 42 61 23 95 -15 27 -20 25
-41 -12z"/>
<path d="M860 1135 c0 -25 8 -57 18 -72 25 -40 49 8 34 68 -16 61 -52 64 -52
4z"/>
<path d="M2088 1131 c-15 -60 9 -108 34 -68 24 37 22 117 -2 117 -10 0 -25
-22 -32 -49z"/>
<path d="M955 1008 c-6 -6 -2 -38 9 -71 25 -72 57 -50 42 28 -10 53 -27 67
-51 43z"/>
<path d="M1994 965 c-15 -78 17 -100 42 -28 20 57 14 83 -17 83 -8 0 -19 -25
-25 -55z"/>
<path d="M1331 907 c-16 -62 7 -267 29 -267 42 0 42 284 0 310 -9 5 -22 -14
-29 -43z"/>
<path d="M1636 949 c-39 -68 -37 -309 4 -309 24 0 42 203 24 269 -9 33 -21 51
-28 40z"/>
</g>
</svg>
