<?xml version="1.0" standalone="no"?>
<!DOCTYPE svg PUBLIC "-//W3C//DTD SVG 20010904//EN"
 "http://www.w3.org/TR/2001/REC-SVG-20010904/DTD/svg10.dtd">
<svg version="1.0" xmlns="http://www.w3.org/2000/svg"
 width="150.000000pt" height="141.000000pt" viewBox="0 0 150.000000 141.000000"
 preserveAspectRatio="xMidYMid meet">
<metadata>
Created by potrace 1.10, written by Peter Selinger 2001-2011
</metadata>
<g transform="translate(0.000000,141.000000) scale(0.050000,-0.050000)"
fill="#000000" stroke="none">
<path d="M160 2796 c0 -33 -101 -136 -134 -136 -21 0 -26 -198 -26 -1060 0
-736 7 -1060 21 -1060 12 0 44 -27 72 -59 74 -89 153 -101 650 -101 491 0 536
-9 462 -97 -35 -42 -300 -103 -453 -103 -127 -1 -152 -18 -152 -102 l0 -78
900 0 900 0 0 78 c0 84 -25 101 -152 102 -153 0 -418 61 -453 103 -74 88 -29
97 462 97 501 0 581 13 643 101 24 32 56 59 71 59 25 0 29 154 29 1060 0 809
-6 1060 -24 1060 -33 0 -136 101 -136 134 0 21 -247 26 -1340 26 -1026 0
-1340 -6 -1340 -24z m2636 -180 c35 -35 35 -1997 0 -2032 -35 -35 -2557 -35
-2592 0 -35 35 -35 1997 0 2032 35 35 2557 35 2592 0z"/>
<path d="M461 2423 c-33 -10 -54 -35 -66 -80 -21 -83 -11 -1324 11 -1358 29
-45 2171 -35 2190 10 27 68 17 1380 -12 1409 -29 29 -2027 46 -2123 19z m2074
-711 c4 -453 -1 -645 -17 -665 -31 -37 -1996 -41 -2034 -3 -26 26 -36 1277
-10 1303 7 7 473 11 1035 8 l1021 -5 5 -638z"/>
</g>
</svg>
