<?xml version="1.0" standalone="no"?>
<!DOCTYPE svg PUBLIC "-//W3C//DTD SVG 20010904//EN"
 "http://www.w3.org/TR/2001/REC-SVG-20010904/DTD/svg10.dtd">
<svg version="1.0" xmlns="http://www.w3.org/2000/svg"
 width="150.000000pt" height="94.000000pt" viewBox="0 0 150.000000 94.000000"
 preserveAspectRatio="xMidYMid meet">
<metadata>
Created by potrace 1.10, written by Peter Selinger 2001-2011
</metadata>
<g transform="translate(0.000000,94.000000) scale(0.050000,-0.050000)"
fill="#000000" stroke="none">
<path d="M1177 1840 c-18 -19 -72 -42 -120 -50 -48 -7 -143 -40 -212 -72 -69
-32 -129 -58 -134 -58 -5 0 -51 -29 -102 -65 -51 -36 -113 -78 -137 -95 -127
-85 -318 -294 -380 -415 -18 -36 -46 -65 -63 -65 -21 0 -29 -23 -29 -80 0 -57
8 -80 29 -80 17 0 45 -29 63 -65 63 -124 255 -332 386 -419 29 -19 97 -66 152
-105 55 -39 109 -71 120 -71 11 -1 65 -23 120 -50 55 -27 114 -50 130 -50 70
-1 180 -44 180 -71 0 -24 53 -29 320 -29 267 0 320 5 320 29 0 27 110 70 180
71 17 0 75 23 130 50 55 27 109 49 120 50 24 0 301 189 382 260 84 73 238 260
276 335 18 36 46 65 63 65 21 0 29 23 29 80 0 57 -8 80 -29 80 -17 0 -45 29
-63 65 -39 77 -193 264 -276 335 -66 57 -328 240 -342 240 -6 0 -66 26 -135
58 -69 32 -164 65 -212 72 -48 8 -104 31 -125 52 -56 56 -590 54 -641 -2z
m723 -192 c94 -29 184 -61 200 -71 17 -10 59 -31 93 -47 233 -107 607 -471
607 -590 0 -120 -340 -454 -590 -579 -44 -22 -93 -49 -110 -58 -172 -102 -682
-161 -900 -104 -116 31 -268 83 -300 103 -16 10 -66 37 -110 59 -251 125 -590
458 -590 579 0 119 343 456 590 579 44 22 94 49 110 60 199 126 704 161 1000
69z"/>
<path d="M1325 1567 c-64 -26 13 -47 175 -47 167 0 239 21 168 48 -37 14 -307
13 -343 -1z"/>
<path d="M1141 1472 c-29 -36 4 -60 59 -42 48 15 52 41 8 58 -41 16 -40 16
-67 -16z"/>
<path d="M1760 1461 c0 -24 74 -47 100 -31 11 7 15 21 9 31 -15 25 -109 25
-109 0z"/>
<path d="M974 1307 c-21 -20 -17 -107 5 -107 27 0 48 81 27 102 -10 10 -25 13
-32 5z"/>
<path d="M1990 1300 c-16 -26 7 -100 31 -100 25 0 25 94 0 109 -10 6 -24 2
-31 -9z"/>
<path d="M1385 1287 c-50 -21 -23 -49 40 -43 36 3 65 15 65 26 0 22 -67 33
-105 17z"/>
<path d="M1233 1184 c-6 -9 -3 -28 7 -44 18 -29 80 4 80 42 0 22 -74 24 -87 2z"/>
<path d="M873 1117 c-16 -61 -16 -293 0 -354 23 -87 46 0 46 177 0 177 -23
264 -46 177z"/>
<path d="M2094 1128 c-20 -21 -17 -364 4 -377 26 -16 42 62 40 199 -1 126 -20
202 -44 178z"/>
<path d="M1148 1031 c-13 -54 5 -98 33 -80 25 15 24 129 -1 129 -10 0 -25 -22
-32 -49z"/>
<path d="M960 631 c0 -53 30 -84 50 -51 16 26 -7 100 -31 100 -11 0 -19 -22
-19 -49z"/>
<path d="M1990 640 c-14 -46 4 -86 31 -69 25 15 25 109 0 109 -10 0 -24 -18
-31 -40z"/>
<path d="M1134 447 c-23 -22 7 -47 57 -47 55 0 66 29 17 48 -40 15 -58 15 -74
-1z"/>
<path d="M1785 447 c-46 -19 -25 -50 30 -43 30 3 53 15 51 26 -5 23 -45 32
-81 17z"/>
<path d="M1314 347 c-32 -32 21 -47 166 -47 165 0 227 12 209 42 -13 20 -355
25 -375 5z"/>
</g>
</svg>
