<?xml version="1.0" standalone="no"?>
<!DOCTYPE svg PUBLIC "-//W3C//DTD SVG 20010904//EN"
 "http://www.w3.org/TR/2001/REC-SVG-20010904/DTD/svg10.dtd">
<svg version="1.0" xmlns="http://www.w3.org/2000/svg"
 width="150.000000pt" height="218.000000pt" viewBox="0 0 150.000000 218.000000"
 preserveAspectRatio="xMidYMid meet">
<metadata>
Created by potrace 1.10, written by Peter Selinger 2001-2011
</metadata>
<g transform="translate(0.000000,218.000000) scale(0.050000,-0.050000)"
fill="#000000" stroke="none">
<path d="M200 4164 c0 -9 8 -25 17 -35 102 -111 105 -1288 4 -1585 -23 -68
-51 -194 -62 -279 -39 -303 -78 -445 -120 -445 -37 0 -39 -19 -39 -449 l0
-448 45 -7 c35 -5 55 -34 90 -134 25 -70 73 -158 105 -196 33 -37 60 -75 60
-84 0 -92 521 -418 675 -422 3 0 5 -18 5 -40 0 -39 13 -40 500 -40 480 0 500
2 500 38 0 42 31 55 259 113 71 18 155 54 187 81 31 26 66 48 76 48 29 0 218
182 218 209 0 13 21 44 48 69 27 26 62 97 81 168 63 234 72 254 113 254 36 0
38 19 38 440 0 414 -2 440 -37 440 -45 0 -73 59 -105 223 -13 70 -55 184 -91
254 -37 69 -67 140 -67 158 0 17 -22 60 -48 94 -27 35 -63 98 -80 140 -18 42
-47 88 -65 101 -18 13 -48 54 -65 91 -44 91 -71 93 -111 8 -19 -40 -56 -104
-83 -143 -26 -40 -48 -88 -48 -108 0 -20 -21 -60 -46 -90 l-47 -54 -44 47
c-24 26 -53 84 -65 128 -12 45 -29 90 -38 101 -8 11 -34 86 -57 168 -23 81
-55 162 -71 180 -17 19 -49 76 -72 127 -23 51 -50 99 -61 106 -12 7 -44 49
-72 95 l-52 82 -36 -44 c-19 -24 -42 -80 -49 -124 -8 -45 -26 -93 -40 -108
-15 -14 -42 -79 -61 -144 -62 -220 -212 -247 -280 -50 -17 51 -49 124 -70 162
-21 39 -60 115 -86 171 -27 55 -64 113 -82 128 -19 16 -47 54 -64 86 -36 70
-260 332 -385 450 -84 79 -222 122 -222 69z m492 -772 c7 -23 35 -71 62 -107
27 -36 63 -108 81 -159 17 -52 52 -125 78 -163 26 -38 47 -88 47 -111 1 -23
24 -96 52 -162 28 -66 63 -164 79 -218 34 -123 65 -156 96 -104 13 21 46 66
75 100 28 34 72 105 97 159 25 53 58 101 73 107 15 5 36 43 47 84 99 364 299
-44 300 -612 1 -205 24 -326 62 -326 21 0 180 169 337 360 205 247 200 243
231 226 54 -31 172 -232 201 -345 16 -63 50 -159 75 -213 63 -136 69 -852 8
-968 -20 -38 -55 -119 -78 -180 -58 -155 -240 -329 -390 -372 -60 -18 -151
-51 -202 -75 -86 -39 -127 -42 -543 -43 l-450 0 -118 65 c-65 36 -129 65 -143
65 -58 0 -336 277 -391 390 -22 44 -55 107 -74 140 -56 99 -47 814 13 984 23
69 57 222 74 340 17 119 48 270 69 336 45 143 57 236 77 583 17 291 39 355
105 295 20 -18 43 -52 50 -76z"/>
<path d="M711 2302 c-17 -33 -31 -74 -31 -90 0 -17 -22 -79 -49 -137 -67 -147
-76 -261 -46 -575 l26 -270 27 360 c15 198 36 376 46 396 41 79 123 17 176
-133 17 -48 26 -53 50 -33 45 37 36 136 -21 234 -29 48 -65 132 -81 186 -36
123 -58 137 -97 62z"/>
<path d="M1383 1997 c-22 -51 -55 -102 -74 -112 -43 -25 -75 -184 -39 -198
143 -55 248 62 221 245 -23 151 -61 174 -108 65z"/>
<path d="M2226 1876 c-12 -14 -27 -44 -34 -67 -6 -22 -39 -50 -72 -63 -63 -24
-80 -79 -30 -99 16 -6 61 7 98 29 101 60 130 29 159 -170 31 -217 47 -222 62
-22 22 287 -4 405 -91 412 -41 3 -80 -5 -92 -20z"/>
<path d="M993 1727 c-21 -22 -15 -166 9 -210 42 -79 198 -21 197 73 -1 54
-174 169 -206 137z"/>
<path d="M1930 1592 c-31 -23 -35 -35 -16 -53 34 -35 130 -6 122 36 -9 46 -57
53 -106 17z"/>
<path d="M1543 1526 c-52 -98 -2 -274 59 -208 21 22 76 51 123 63 47 13 96 27
110 31 71 20 23 73 -55 60 -85 -13 -188 23 -205 73 -5 16 -17 9 -32 -19z"/>
<path d="M2230 1081 c-16 -73 3 -112 39 -82 26 22 19 114 -10 131 -9 6 -22
-17 -29 -49z"/>
</g>
</svg>
