<?xml version="1.0" standalone="no"?>
<!DOCTYPE svg PUBLIC "-//W3C//DTD SVG 20010904//EN"
 "http://www.w3.org/TR/2001/REC-SVG-20010904/DTD/svg10.dtd">
<svg version="1.0" xmlns="http://www.w3.org/2000/svg"
 width="600.000000pt" height="600.000000pt" viewBox="0 0 600.000000 600.000000"
 preserveAspectRatio="xMidYMid meet">
<metadata>
Created by potrace 1.10, written by Peter Selinger 2001-2011
</metadata>
<g transform="translate(0.000000,600.000000) scale(0.100000,-0.100000)"
fill="#000000" stroke="none">
<path d="M2999 5943 c0 -32 -4 -169 -8 -305 -8 -270 -7 -265 -73 -299 -82 -42
-125 -211 -123 -492 l0 -92 43 -57 c23 -32 47 -58 52 -58 16 0 48 36 70 79 16
33 20 60 20 148 1 115 23 377 35 405 4 9 23 22 42 29 29 9 39 21 57 63 56 127
69 258 52 509 l-9 127 -79 0 -78 0 -1 -57z"/>
<path d="M4002 5148 c-28 -35 -60 -196 -66 -334 -11 -263 -29 -344 -76 -344
-90 0 -154 -355 -101 -558 23 -89 44 -122 75 -122 56 0 91 134 100 385 8 202
15 231 63 251 51 22 88 108 108 248 22 157 20 273 -6 338 -55 144 -72 166 -97
136z"/>
<path d="M1725 5053 c-42 -58 -43 -63 -49 -274 -6 -177 -21 -249 -55 -249 -49
0 -95 -78 -116 -199 -16 -94 -21 -287 -11 -405 8 -78 12 -92 38 -122 36 -41
56 -43 90 -6 24 25 26 35 32 157 4 71 9 146 11 165 3 19 10 90 15 157 12 159
24 200 61 208 32 7 61 43 77 95 23 75 42 206 42 297 0 84 -3 100 -27 141 -30
54 -53 82 -64 82 -5 0 -24 -21 -44 -47z"/>
<path d="M2633 3724 c-157 -22 -241 -61 -278 -128 -12 -20 -111 -45 -181 -46
-44 0 -176 -50 -207 -78 -10 -9 -25 -29 -33 -44 -17 -32 -52 -52 -120 -69 -66
-16 -112 -52 -135 -105 -15 -36 -27 -48 -64 -64 -74 -32 -103 -59 -126 -119
-26 -69 -32 -77 -70 -85 -39 -8 -87 -61 -99 -111 -25 -100 -30 -110 -76 -145
-80 -60 -119 -139 -135 -278 -11 -101 -30 -149 -62 -161 -30 -12 -53 -47 -68
-104 -12 -49 -43 -84 -104 -116 -36 -19 -56 -21 -230 -21 -197 0 -361 -18
-401 -44 -11 -8 -38 -37 -59 -64 -54 -72 -90 -95 -142 -94 l-43 0 0 -254 0
-254 46 0 c39 0 49 -5 80 -37 19 -21 50 -63 69 -94 19 -31 56 -73 82 -93 27
-21 59 -54 73 -74 40 -61 63 -85 107 -120 23 -18 62 -64 87 -102 26 -38 58
-76 74 -84 44 -23 90 -78 100 -121 6 -22 18 -103 27 -180 10 -77 21 -150 26
-162 4 -12 25 -37 46 -55 117 -102 133 -122 133 -172 l0 -46 2040 0 2040 0 0
35 c0 54 23 89 99 149 37 30 73 67 79 83 6 15 21 99 32 186 11 88 26 173 34
191 12 29 51 68 109 108 14 10 39 42 57 73 17 30 56 76 87 102 30 26 70 70 88
99 18 28 56 71 84 94 29 24 67 70 87 101 19 31 52 73 74 93 35 31 47 36 90 36
l50 0 0 245 0 245 -55 0 c-53 0 -59 3 -106 47 -28 26 -57 59 -64 74 -32 61
-174 89 -451 89 l-192 0 -48 33 c-68 44 -70 72 -11 123 25 22 67 48 94 58 26
11 75 41 107 67 33 26 87 58 120 70 175 63 219 83 258 116 24 20 84 56 134 80
77 36 101 43 153 43 l61 0 0 164 0 163 -147 5 c-169 6 -188 1 -283 -71 -60
-46 -134 -83 -199 -101 -70 -19 -128 -47 -182 -90 -53 -42 -85 -58 -177 -91
-52 -18 -54 -18 -104 1 -53 20 -171 95 -200 126 -9 11 -25 51 -36 91 -25 96
-43 120 -107 148 -45 20 -55 30 -65 62 -7 21 -21 52 -31 68 -18 31 -84 75
-111 75 -18 0 -54 38 -62 67 -12 40 -77 88 -138 102 -57 12 -67 20 -144 104
-43 46 -139 83 -250 96 -99 11 -139 28 -169 74 -24 37 -108 70 -216 87 -121
19 -625 22 -746 4z m879 -190 c27 -13 37 -25 46 -61 23 -83 48 -94 280 -119
73 -7 110 -32 127 -85 8 -26 21 -39 55 -54 25 -11 81 -38 125 -60 70 -35 83
-46 105 -89 24 -46 75 -93 151 -141 32 -20 53 -56 109 -182 30 -66 36 -73 73
-86 49 -16 77 -50 84 -104 4 -34 1 -45 -27 -76 -17 -20 -40 -39 -50 -42 -29
-9 -96 40 -118 89 -24 50 -35 59 -83 75 -49 16 -70 41 -80 97 -12 64 -50 111
-99 124 -42 11 -64 36 -76 83 -11 45 -58 85 -110 93 -56 8 -89 36 -106 88 -20
60 -47 74 -207 101 -79 14 -150 30 -156 35 -7 6 -18 30 -24 53 -17 70 -31 77
-176 85 -70 4 -191 7 -269 6 -77 -1 -241 -2 -363 -3 -253 -1 -257 -2 -269 -82
-4 -22 -13 -46 -20 -53 -11 -12 -210 -56 -251 -56 -10 0 -35 -5 -56 -11 -33
-9 -41 -18 -67 -73 -32 -67 -35 -69 -135 -98 -52 -14 -59 -23 -90 -101 -12
-31 -24 -42 -70 -62 -62 -28 -89 -63 -99 -130 -8 -49 -34 -77 -88 -94 -61 -20
-72 -43 -92 -197 -10 -77 -23 -147 -28 -157 -5 -10 -35 -24 -69 -34 -47 -13
-64 -23 -75 -45 -15 -29 -70 -58 -109 -58 -22 0 -75 41 -75 58 0 27 42 60 83
66 57 9 62 21 83 183 21 165 33 205 67 221 15 6 39 18 54 25 19 9 33 29 50 72
48 125 83 182 122 199 55 25 112 78 140 130 27 49 44 62 170 121 30 14 60 25
67 25 17 0 54 48 54 69 0 27 37 59 78 69 20 5 81 14 134 21 108 12 175 34 182
59 2 10 7 29 10 44 8 36 44 58 108 68 29 4 254 8 500 9 393 1 451 -1 480 -15z
m-143 -364 c52 -6 100 -15 107 -21 8 -6 16 -27 20 -48 4 -20 11 -44 16 -54 13
-26 69 -47 121 -47 48 0 144 -23 193 -46 22 -11 37 -27 44 -49 22 -67 78 -110
168 -130 39 -8 45 -17 67 -88 23 -75 45 -101 101 -123 39 -15 49 -25 65 -62
11 -24 22 -74 25 -111 6 -66 6 -68 -26 -104 -59 -68 -124 -41 -160 67 -22 68
-47 98 -95 113 -17 6 -36 22 -45 39 -37 74 -64 103 -117 131 -43 22 -60 38
-79 75 -32 63 -59 79 -153 89 -105 12 -129 22 -136 56 -4 15 -12 44 -19 63
-22 65 -25 65 -466 65 -217 0 -412 -4 -432 -8 -40 -8 -68 -45 -68 -86 0 -11
-10 -31 -22 -46 -19 -21 -36 -27 -108 -36 -100 -12 -138 -31 -165 -84 -11 -21
-32 -46 -45 -55 -14 -9 -44 -29 -66 -44 -28 -18 -52 -47 -73 -86 -27 -51 -37
-61 -71 -70 -52 -14 -77 -56 -91 -156 -11 -82 -37 -139 -67 -148 -49 -14 -190
-39 -212 -38 -13 1 -28 6 -34 12 -15 15 13 40 44 40 53 0 70 26 80 125 15 143
50 227 103 244 50 17 89 64 112 134 17 52 25 64 54 77 126 56 135 63 165 122
25 49 35 60 80 79 28 12 85 26 126 31 165 21 156 17 170 88 6 30 17 61 24 68
9 9 51 17 112 22 149 11 646 11 753 0z m13 -392 c23 -10 43 -28 50 -45 35 -82
58 -98 177 -119 94 -17 117 -32 126 -83 10 -59 37 -87 100 -106 70 -20 80 -40
88 -172 l6 -103 -33 -25 c-18 -14 -43 -25 -56 -25 -28 0 -90 56 -90 80 0 27
-57 106 -116 159 -59 54 -141 104 -189 116 -38 8 -65 33 -65 58 0 10 -15 34
-33 52 -28 28 -43 34 -102 41 -85 11 -538 8 -580 -4 -23 -6 -37 -21 -60 -67
-26 -52 -36 -61 -75 -75 -74 -26 -165 -79 -206 -119 -38 -36 -65 -81 -102
-172 -14 -32 -29 -50 -52 -61 -30 -15 -36 -14 -82 5 -28 11 -52 26 -55 33 -3
7 2 35 10 61 9 26 19 72 22 100 9 67 33 98 89 112 55 14 81 39 95 95 15 59 35
73 134 94 99 21 152 55 165 104 10 41 47 67 108 77 27 5 193 8 369 7 278 -1
325 -3 357 -18z m-83 -376 c13 -10 30 -38 37 -63 17 -59 36 -74 108 -88 75
-14 106 -41 106 -91 0 -30 -6 -41 -42 -68 -23 -18 -48 -32 -55 -32 -7 0 -42
13 -76 29 -44 19 -75 42 -101 74 -54 66 -78 72 -301 72 -214 0 -243 -7 -287
-75 -23 -35 -98 -82 -150 -95 -35 -9 -108 54 -108 94 1 49 56 91 120 91 39 0
87 43 100 89 5 21 18 45 29 55 27 25 172 35 401 30 165 -4 199 -7 219 -22z
m2145 -727 c74 -7 83 -11 120 -46 l41 -38 -20 -38 c-11 -20 -36 -48 -55 -61
-20 -13 -55 -56 -83 -103 -36 -58 -63 -89 -102 -117 -29 -20 -64 -55 -76 -77
-12 -22 -57 -76 -100 -120 -139 -141 -241 -267 -273 -335 -27 -58 -31 -77 -34
-179 l-4 -113 -39 -39 -39 -39 -1622 -2 c-2031 -4 -1945 -4 -1977 19 -50 38
-59 62 -69 183 -7 94 -14 125 -36 171 -31 62 -172 240 -265 334 -33 33 -71 80
-84 105 -13 25 -51 67 -83 93 -33 27 -76 76 -99 111 -22 35 -66 89 -98 119
-31 30 -57 64 -57 74 0 30 60 80 105 88 22 4 312 10 645 13 835 9 4207 7 4304
-3z"/>
</g>
</svg>
