<?xml version="1.0" standalone="no"?>
<!DOCTYPE svg PUBLIC "-//W3C//DTD SVG 20010904//EN"
 "http://www.w3.org/TR/2001/REC-SVG-20010904/DTD/svg10.dtd">
<svg version="1.0" xmlns="http://www.w3.org/2000/svg"
 width="150.000000pt" height="145.000000pt" viewBox="0 0 150.000000 145.000000"
 preserveAspectRatio="xMidYMid meet">
<metadata>
Created by potrace 1.10, written by Peter Selinger 2001-2011
</metadata>
<g transform="translate(0.000000,145.000000) scale(0.050000,-0.050000)"
fill="#000000" stroke="none">
<path d="M600 2876 c0 -13 -29 -54 -65 -91 l-65 -67 -6 -673 -6 -672 -169
-177 c-280 -295 -278 -304 183 -765 193 -193 358 -351 368 -351 9 0 23 -18 30
-40 16 -52 250 -61 250 -10 0 16 23 44 52 63 28 18 98 80 155 137 156 157 116
150 844 150 l653 0 70 70 c38 39 78 70 88 70 10 0 18 47 18 105 l0 105 -1091
1085 -1091 1085 -109 0 c-72 0 -109 -8 -109 -24z m1202 -1170 c1052 -1048
1069 -1067 994 -1142 -38 -38 -133 -29 -161 16 -31 51 -57 51 -100 0 -54 -62
-1164 -62 -1181 0 -6 22 -25 40 -42 40 -43 0 -40 -33 6 -73 65 -56 -207 -366
-322 -367 -71 0 -736 654 -736 725 0 44 162 224 284 316 l54 41 43 -43 c29
-29 50 -36 63 -23 25 25 4 64 -34 64 -77 0 -70 1119 8 1182 l48 39 -43 46
c-41 43 -59 151 -30 180 70 69 105 39 1149 -1001z"/>
<path d="M820 2322 c0 -9 13 -28 28 -41 32 -26 64 4 42 39 -15 25 -70 27 -70
2z"/>
<path d="M920 2231 c0 -36 33 -58 61 -40 14 8 14 21 -2 41 -31 36 -59 36 -59
-1z"/>
<path d="M1100 2051 c0 -36 33 -58 61 -40 14 8 14 21 -2 41 -31 36 -59 36 -59
-1z"/>
<path d="M1471 1701 c-18 -28 4 -61 40 -61 37 0 37 28 1 59 -20 16 -33 16 -41
2z"/>
<path d="M1651 1521 c-18 -28 4 -61 40 -61 37 0 37 28 1 59 -20 16 -33 16 -41
2z"/>
<path d="M1923 1227 c9 -44 67 -50 67 -7 0 16 -17 33 -37 37 -27 5 -35 -3 -30
-30z"/>
<path d="M831 1062 c-13 -21 45 -73 62 -56 17 17 -7 74 -31 74 -11 0 -25 -8
-31 -18z"/>
<path d="M2100 1051 c0 -36 33 -58 61 -40 14 8 14 21 -2 41 -31 36 -59 36 -59
-1z"/>
<path d="M1011 882 c-13 -21 45 -73 62 -56 17 17 -7 74 -31 74 -11 0 -25 -8
-31 -18z"/>
<path d="M2283 867 c9 -44 67 -50 67 -7 0 16 -17 33 -37 37 -27 5 -35 -3 -30
-30z"/>
<path d="M2371 782 c-13 -22 38 -67 56 -48 7 7 13 25 13 39 0 30 -52 37 -69 9z"/>
<path d="M1660 2831 c0 -86 7 -90 195 -110 208 -21 399 -104 569 -245 110 -91
291 -323 309 -396 7 -27 29 -83 50 -124 20 -41 37 -114 37 -163 0 -180 16
-213 103 -213 l77 0 0 170 c0 136 -6 170 -29 170 -18 0 -38 34 -51 85 -88 344
-482 746 -788 803 -41 8 -92 32 -113 53 -32 32 -67 39 -199 39 l-160 0 0 -69z"/>
<path d="M1730 2501 c-18 -29 80 -47 165 -31 63 13 69 17 35 31 -57 23 -185
23 -200 0z"/>
<path d="M2030 2403 c28 -28 118 -37 130 -13 6 11 -25 23 -70 26 -53 5 -73 0
-60 -13z"/>
<path d="M2200 2319 c0 -27 53 -46 81 -28 17 10 16 19 -4 31 -37 24 -77 22
-77 -3z"/>
<path d="M2300 2238 c0 -12 18 -26 40 -32 22 -6 40 -27 40 -47 0 -45 37 -70
63 -44 13 13 -3 41 -43 82 -65 65 -100 79 -100 41z"/>
<path d="M2473 2066 c-15 -15 5 -109 30 -135 10 -11 17 11 17 54 0 70 -21 107
-47 81z"/>
<path d="M2575 1853 c-21 -51 -18 -177 4 -212 30 -47 49 68 28 165 -14 65 -21
75 -32 47z"/>
</g>
</svg>
