<?xml version="1.0" standalone="no"?>
<!DOCTYPE svg PUBLIC "-//W3C//DTD SVG 20010904//EN"
 "http://www.w3.org/TR/2001/REC-SVG-20010904/DTD/svg10.dtd">
<svg version="1.0" xmlns="http://www.w3.org/2000/svg"
 width="150.000000pt" height="131.000000pt" viewBox="0 0 150.000000 131.000000"
 preserveAspectRatio="xMidYMid meet">
<metadata>
Created by potrace 1.10, written by Peter Selinger 2001-2011
</metadata>
<g transform="translate(0.000000,131.000000) scale(0.050000,-0.050000)"
fill="#000000" stroke="none">
<path d="M660 2593 c0 -26 -79 -73 -126 -73 -29 -1 -185 -103 -254 -166 -78
-72 -169 -215 -196 -309 -15 -50 -38 -85 -55 -85 -24 0 -29 -42 -29 -230 0
-186 5 -230 28 -230 16 0 40 -34 53 -75 42 -132 149 -269 399 -515 134 -132
397 -391 583 -575 l340 -335 97 0 97 0 340 335 c187 184 449 443 583 575 251
246 357 384 399 515 13 41 37 75 53 75 23 0 28 44 28 230 0 186 -5 230 -28
230 -16 0 -40 34 -53 75 -30 94 -133 260 -199 320 -71 64 -226 164 -254 165
-47 0 -126 47 -126 73 0 21 -51 27 -230 27 -181 0 -230 -6 -230 -27 0 -15 -53
-47 -118 -71 -65 -23 -129 -56 -142 -72 -33 -40 -207 -40 -240 0 -13 16 -77
49 -142 72 -65 24 -118 56 -118 71 0 21 -49 27 -230 27 -179 0 -230 -6 -230
-27z m524 -213 c71 -33 163 -92 205 -130 95 -88 127 -88 222 0 568 520 1473
-116 1147 -807 -83 -177 -1166 -1263 -1259 -1263 -92 0 -1174 1087 -1257 1264
-274 578 361 1208 942 936z"/>
<path d="M765 2127 c-43 -17 -28 -47 24 -47 58 0 84 31 39 48 -17 7 -33 11
-35 10 -1 0 -14 -6 -28 -11z"/>
<path d="M588 2011 c-20 -52 13 -77 54 -40 20 19 32 42 26 52 -17 27 -68 20
-80 -12z"/>
<path d="M496 1865 c-11 -52 6 -126 26 -114 24 15 23 149 -1 149 -10 0 -21
-16 -25 -35z"/>
</g>
</svg>
