<?xml version="1.0" standalone="no"?>
<!DOCTYPE svg PUBLIC "-//W3C//DTD SVG 20010904//EN"
 "http://www.w3.org/TR/2001/REC-SVG-20010904/DTD/svg10.dtd">
<svg version="1.0" xmlns="http://www.w3.org/2000/svg"
 width="150.000000pt" height="150.000000pt" viewBox="0 0 150.000000 150.000000"
 preserveAspectRatio="xMidYMid meet">
<metadata>
Created by potrace 1.10, written by Peter Selinger 2001-2011
</metadata>
<g transform="translate(0.000000,150.000000) scale(0.050000,-0.050000)"
fill="#000000" stroke="none">
<path d="M1820 2972 c0 -16 -34 -40 -75 -53 -421 -134 -704 -673 -572 -1089
31 -100 31 -106 -5 -145 -210 -227 -1121 -1125 -1142 -1125 -51 0 -36 -453 15
-466 23 -6 47 -30 53 -53 15 -58 465 -65 467 -6 2 82 153 165 297 165 174 0
236 54 255 222 16 142 32 158 156 158 152 0 203 60 216 254 16 234 188 398
355 338 129 -46 366 -42 477 8 48 22 96 40 107 40 104 0 442 335 479 474 11
42 37 91 58 109 58 50 59 507 2 522 -24 6 -45 41 -59 97 -44 169 -327 440
-519 495 -50 15 -85 37 -85 54 0 24 -43 29 -240 29 -194 0 -240 -5 -240 -28z
m513 -196 c21 -18 62 -39 93 -47 71 -18 290 -236 307 -306 7 -29 27 -69 44
-89 61 -70 58 -409 -5 -541 -28 -61 -52 -118 -52 -128 0 -41 -215 -232 -327
-290 -152 -79 -499 -96 -592 -30 -86 61 -125 44 -292 -123 -180 -181 -186
-192 -188 -345 -1 -127 -12 -137 -151 -137 -138 0 -210 -72 -210 -210 0 -143
-29 -170 -181 -170 -120 0 -147 -14 -296 -156 -18 -17 -72 -24 -160 -20 l-133
6 -6 138 -6 138 601 600 c625 625 635 637 566 735 -67 94 -50 420 31 583 61
126 244 335 293 337 12 0 66 23 121 51 124 62 476 65 543 4z"/>
<path d="M2105 2576 c10 -30 113 -36 120 -6 3 11 -25 23 -62 26 -49 5 -65 0
-58 -20z"/>
<path d="M1989 2498 c-21 -33 26 -71 53 -44 23 23 9 66 -22 66 -10 0 -24 -10
-31 -22z"/>
<path d="M2371 2421 c-18 -28 4 -61 40 -61 37 0 37 28 1 59 -20 16 -33 16 -41
2z"/>
<path d="M1900 2330 c0 -49 9 -70 30 -70 21 0 30 21 30 70 0 49 -9 70 -30 70
-21 0 -30 -21 -30 -70z"/>
<path d="M2540 2170 c0 -49 9 -70 30 -70 21 0 30 21 30 70 0 49 -9 70 -30 70
-21 0 -30 -21 -30 -70z"/>
<path d="M2060 2122 c0 -9 13 -28 28 -41 32 -26 64 4 42 39 -15 25 -70 27 -70
2z"/>
<path d="M2453 2031 c-14 -37 23 -63 51 -35 21 21 6 64 -23 64 -9 0 -22 -13
-28 -29z"/>
<path d="M2271 1941 c-8 -12 0 -26 16 -33 43 -16 123 -2 123 22 0 28 -123 37
-139 11z"/>
</g>
</svg>
