<?xml version="1.0" standalone="no"?>
<!DOCTYPE svg PUBLIC "-//W3C//DTD SVG 20010904//EN"
 "http://www.w3.org/TR/2001/REC-SVG-20010904/DTD/svg10.dtd">
<svg version="1.0" xmlns="http://www.w3.org/2000/svg"
 width="150.000000pt" height="150.000000pt" viewBox="0 0 150.000000 150.000000"
 preserveAspectRatio="xMidYMid meet">
<metadata>
Created by potrace 1.10, written by Peter Selinger 2001-2011
</metadata>
<g transform="translate(0.000000,150.000000) scale(0.050000,-0.050000)"
fill="#000000" stroke="none">
<path d="M2660 2960 c0 -35 13 -40 110 -40 97 0 110 5 110 40 0 35 -13 40
-110 40 -97 0 -110 -5 -110 -40z"/>
<path d="M2570 2856 c-29 -79 -17 -196 20 -196 23 0 30 24 30 99 0 94 -30 152
-50 97z"/>
<path d="M2920 2770 c0 -97 5 -110 40 -110 35 0 40 13 40 110 0 97 -5 110 -40
110 -35 0 -40 -13 -40 -110z"/>
<path d="M1628 2639 c-143 -113 -208 -213 -208 -319 0 -109 -31 -146 -150
-178 -44 -11 -98 -34 -120 -49 -22 -15 -71 -35 -108 -43 -38 -8 -96 -32 -130
-52 -34 -21 -75 -38 -92 -38 -16 0 -57 -15 -90 -32 -33 -18 -105 -49 -160 -69
-55 -20 -146 -53 -203 -74 -56 -20 -125 -52 -154 -71 -28 -19 -61 -34 -72 -34
-11 0 -35 -22 -53 -50 -18 -27 -45 -50 -60 -50 -21 0 -28 -31 -28 -120 0 -66
7 -120 15 -120 23 0 1325 -1298 1325 -1320 0 -11 58 -20 130 -20 79 0 130 8
130 21 0 12 35 64 78 115 43 52 84 126 92 164 8 39 31 98 52 132 21 35 38 75
38 90 0 16 23 73 50 128 27 55 49 114 50 130 1 17 23 75 50 130 27 55 50 112
50 128 0 15 17 55 38 90 21 34 45 96 53 137 19 104 88 155 210 155 146 0 346
191 344 328 -2 116 -35 156 -493 607 -402 395 -427 407 -584 284z m558 -475
c394 -397 399 -407 281 -518 -85 -80 -149 -77 -219 9 -48 59 -53 56 -153 -95
-59 -89 -122 -100 -185 -32 -27 29 -63 52 -81 52 -47 0 -24 -49 28 -56 23 -4
43 -16 43 -28 0 -12 23 -42 50 -68 59 -54 54 -161 -11 -288 -20 -38 -46 -102
-58 -142 -12 -39 -40 -106 -61 -149 -22 -43 -40 -91 -40 -108 0 -17 -18 -58
-40 -91 -22 -33 -40 -73 -40 -88 0 -16 -22 -74 -49 -131 -26 -56 -54 -127 -62
-158 -13 -53 -73 -93 -139 -93 -48 0 -1270 1225 -1270 1273 0 44 103 147 147
147 12 0 68 23 123 50 55 27 118 49 140 50 22 0 67 18 100 40 45 30 94 40 194
40 111 0 138 7 155 38 25 46 196 162 240 162 17 0 64 17 103 38 40 22 108 48
151 60 44 12 102 45 128 74 l49 52 -55 44 c-72 57 -72 136 0 212 110 115 136
101 531 -296z"/>
<path d="M1112 1743 c-20 -33 304 -58 378 -30 27 10 28 16 7 29 -36 23 -372
23 -385 1z"/>
<path d="M1610 1660 c-18 -29 -14 -32 75 -48 60 -11 75 -8 75 17 0 17 -11 31
-25 31 -14 0 -44 6 -68 12 -23 6 -49 1 -57 -12z"/>
<path d="M870 1560 c-19 -31 8 -60 56 -60 59 1 102 30 85 58 -17 27 -124 29
-141 2z"/>
<path d="M783 1475 c-45 -45 -14 -176 35 -146 26 16 30 144 5 159 -9 6 -27 0
-40 -13z"/>
<path d="M1054 1487 c-8 -8 -14 -49 -14 -92 0 -97 47 -94 56 4 7 66 -16 114
-42 88z"/>
<path d="M1453 1467 c-33 -34 -5 -47 97 -47 106 0 144 23 78 48 -42 16 -158
15 -175 -1z"/>
<path d="M1351 1356 c-28 -82 -17 -196 19 -196 23 0 30 24 30 99 0 94 -30 153
-49 97z"/>
<path d="M1700 1270 c0 -82 7 -111 25 -105 15 5 25 45 25 105 0 60 -10 100
-25 105 -18 6 -25 -23 -25 -105z"/>
<path d="M850 1280 c-7 -11 1 -25 17 -32 46 -17 139 -1 148 27 10 31 -146 35
-165 5z"/>
<path d="M1440 1093 c0 -34 85 -54 152 -36 84 23 61 53 -47 59 -81 5 -105 -1
-105 -23z"/>
<path d="M1160 840 c0 -53 7 -60 60 -60 53 0 60 7 60 60 0 53 -7 60 -60 60
-53 0 -60 -7 -60 -60z"/>
<path d="M2660 2593 c0 -34 85 -54 152 -36 84 23 61 53 -47 59 -81 5 -105 -1
-105 -23z"/>
<path d="M2660 2250 c0 -64 5 -70 60 -70 55 0 60 6 60 70 0 64 -5 70 -60 70
-55 0 -60 -6 -60 -70z"/>
</g>
</svg>
