<?xml version="1.0" standalone="no"?>
<!DOCTYPE svg PUBLIC "-//W3C//DTD SVG 20010904//EN"
 "http://www.w3.org/TR/2001/REC-SVG-20010904/DTD/svg10.dtd">
<svg version="1.0" xmlns="http://www.w3.org/2000/svg"
 width="150.000000pt" height="150.000000pt" viewBox="0 0 150.000000 150.000000"
 preserveAspectRatio="xMidYMid meet">
<metadata>
Created by potrace 1.10, written by Peter Selinger 2001-2011
</metadata>
<g transform="translate(0.000000,150.000000) scale(0.050000,-0.050000)"
fill="#000000" stroke="none">
<path d="M1380 2979 c0 -11 -29 -52 -65 -91 -66 -73 -92 -154 -94 -300 -3
-257 -312 -614 -499 -578 -39 8 -178 18 -308 23 l-235 9 -69 -71 c-38 -39 -78
-71 -90 -71 -13 0 -20 -293 -20 -870 0 -705 5 -870 26 -870 33 0 134 -103 134
-136 0 -17 72 -24 260 -24 208 0 260 6 260 28 0 15 32 52 71 82 76 58 79 58
309 9 61 -13 157 -32 215 -43 69 -12 105 -29 105 -47 0 -24 83 -29 527 -29
l526 0 83 77 c80 73 144 201 144 287 0 47 52 152 104 209 29 32 41 82 49 200
7 112 25 187 61 262 42 87 51 133 49 260 -2 177 8 225 48 225 23 0 29 33 29
150 0 117 -6 150 -29 150 -16 0 -45 27 -64 60 -64 108 -205 146 -577 156 -413
11 -391 -3 -387 250 4 286 -106 543 -266 626 -31 16 -57 42 -57 59 0 22 -28
29 -120 29 -69 0 -120 -9 -120 -21z m231 -215 c165 -151 239 -549 139 -750
-65 -130 -51 -134 510 -134 397 0 417 -2 472 -44 81 -62 87 -75 88 -171 0
-135 -59 -174 -285 -190 -103 -7 -96 -44 10 -50 197 -12 271 -91 222 -236 -43
-126 -107 -169 -253 -169 -218 -1 -228 -47 -17 -71 147 -17 175 -55 153 -207
-20 -130 -75 -174 -241 -191 -189 -20 -228 -70 -56 -71 159 0 196 -185 57
-285 -41 -30 -934 -17 -1051 15 -60 17 -185 44 -279 62 -93 17 -206 51 -250
75 l-80 44 -5 685 -6 686 64 57 c34 32 86 64 114 71 219 55 478 490 482 811 2
130 105 160 212 63z m-975 -908 c34 -34 34 -1618 0 -1652 -33 -33 -399 -33
-432 0 -34 34 -34 1618 0 1652 33 33 399 33 432 0z"/>
<path d="M340 500 c-53 -53 -51 -103 6 -157 114 -106 264 47 154 157 -22 22
-58 40 -80 40 -22 0 -58 -18 -80 -40z m119 -49 c31 -37 11 -71 -40 -71 -24 0
-39 14 -39 37 0 65 39 82 79 34z"/>
</g>
</svg>
