<?xml version="1.0" standalone="no"?>
<!DOCTYPE svg PUBLIC "-//W3C//DTD SVG 20010904//EN"
 "http://www.w3.org/TR/2001/REC-SVG-20010904/DTD/svg10.dtd">
<svg version="1.0" xmlns="http://www.w3.org/2000/svg"
 width="150.000000pt" height="200.000000pt" viewBox="0 0 150.000000 200.000000"
 preserveAspectRatio="xMidYMid meet">
<metadata>
Created by potrace 1.10, written by Peter Selinger 2001-2011
</metadata>
<g transform="translate(0.000000,200.000000) scale(0.050000,-0.050000)"
fill="#000000" stroke="none">
<path d="M1140 3971 c0 -36 -51 -65 -187 -105 -316 -93 -714 -489 -816 -812
-47 -150 -72 -194 -108 -194 -24 0 -29 -58 -29 -370 0 -312 5 -370 29 -370 40
0 65 -52 102 -212 17 -74 53 -172 78 -217 26 -44 54 -103 62 -131 8 -27 35
-77 60 -110 24 -33 50 -79 57 -103 8 -24 40 -77 73 -118 32 -41 59 -86 59
-101 0 -15 27 -57 60 -95 33 -38 60 -75 60 -83 0 -8 29 -49 65 -91 36 -42 92
-113 125 -158 127 -175 370 -462 475 -563 41 -39 75 -87 75 -105 0 -27 22 -33
120 -33 95 0 120 6 120 31 0 17 52 85 115 151 63 65 139 148 169 184 100 119
206 252 266 335 33 45 89 116 125 158 36 42 65 85 65 95 0 11 19 37 43 58 24
21 59 75 80 120 20 46 49 93 65 106 15 13 39 52 53 88 14 35 45 91 69 124 24
33 51 83 59 110 8 28 37 88 63 134 27 46 57 129 68 184 26 140 72 242 109 242
27 0 31 49 31 370 0 312 -5 370 -29 370 -36 0 -61 44 -108 194 -102 323 -500
719 -816 812 -136 40 -187 69 -187 105 0 24 -57 29 -360 29 -303 0 -360 -5
-360 -29z m640 -230 c106 -27 369 -141 377 -163 4 -10 40 -36 80 -57 138 -73
357 -330 403 -473 14 -43 44 -109 67 -148 64 -105 65 -708 1 -830 -23 -44 -53
-127 -67 -185 -14 -57 -41 -125 -60 -150 -19 -25 -47 -81 -61 -125 -14 -44
-41 -98 -62 -120 -20 -22 -49 -72 -65 -110 -16 -39 -53 -97 -81 -130 -29 -33
-52 -68 -52 -77 0 -10 -25 -47 -55 -84 -59 -71 -161 -212 -197 -272 -12 -20
-43 -59 -70 -86 -26 -28 -75 -83 -108 -122 -33 -40 -85 -97 -115 -128 -30 -32
-55 -64 -55 -73 0 -45 -92 -108 -157 -108 -66 0 -163 61 -163 103 0 9 -50 68
-110 132 -61 63 -115 130 -121 148 -6 18 -33 48 -60 66 -27 17 -49 42 -49 55
0 13 -24 49 -53 79 -30 31 -72 87 -95 124 -72 117 -157 241 -186 270 -15 15
-41 60 -58 100 -16 40 -47 91 -67 113 -20 22 -43 68 -50 103 -7 34 -34 91 -60
126 -27 36 -59 111 -72 168 -14 57 -44 139 -67 183 -60 114 -64 729 -6 817 20
31 50 93 66 139 62 175 268 420 420 499 37 20 68 44 68 54 0 15 100 60 340
152 81 31 491 38 600 10z"/>
<path d="M1242 3212 c-152 -44 -97 -56 258 -56 322 0 320 0 320 22 0 44 -450
71 -578 34z"/>
<path d="M1022 3073 c-17 -21 -16 -33 4 -50 31 -25 123 26 103 58 -17 28 -81
23 -107 -8z"/>
<path d="M1874 3087 c-20 -20 26 -67 65 -67 49 0 64 22 38 53 -23 28 -81 36
-103 14z"/>
<path d="M2025 2977 c-17 -17 -15 -38 7 -81 33 -64 68 -58 68 13 0 59 -44 99
-75 68z"/>
<path d="M913 2967 c-20 -20 -16 -103 6 -116 22 -14 86 98 67 116 -17 17 -56
16 -73 0z"/>
<path d="M786 2705 c-31 -147 -10 -405 32 -405 28 0 41 79 41 240 0 232 -40
323 -73 165z"/>
<path d="M2153 2715 c-45 -165 10 -522 57 -375 34 108 13 420 -29 420 -9 0
-22 -20 -28 -45z"/>
<path d="M907 2217 c-33 -42 20 -150 82 -165 28 -7 51 -20 51 -29 0 -76 193
-163 229 -104 17 27 -55 61 -128 61 -48 0 -61 9 -61 40 0 25 -19 48 -50 60
-28 11 -50 35 -50 56 0 60 -48 113 -73 81z"/>
<path d="M2041 2203 c-11 -22 -21 -55 -21 -72 0 -18 -22 -41 -50 -51 -27 -10
-50 -32 -50 -47 0 -50 144 39 172 106 32 75 -14 132 -51 64z"/>
<path d="M1755 1958 c-20 -11 -31 -29 -24 -39 26 -42 189 -6 189 42 0 25 -120
23 -165 -3z"/>
<path d="M1410 1820 c-8 -12 27 -20 90 -20 63 0 98 8 90 20 -7 11 -47 20 -90
20 -43 0 -83 -9 -90 -20z"/>
</g>
</svg>
