<?xml version="1.0" standalone="no"?>
<!DOCTYPE svg PUBLIC "-//W3C//DTD SVG 20010904//EN"
 "http://www.w3.org/TR/2001/REC-SVG-20010904/DTD/svg10.dtd">
<svg version="1.0" xmlns="http://www.w3.org/2000/svg"
 width="150.000000pt" height="200.000000pt" viewBox="0 0 150.000000 200.000000"
 preserveAspectRatio="xMidYMid meet">
<metadata>
Created by potrace 1.10, written by Peter Selinger 2001-2011
</metadata>
<g transform="translate(0.000000,200.000000) scale(0.050000,-0.050000)"
fill="#000000" stroke="none">
<path d="M1190 3956 c-13 -30 -62 -59 -143 -88 -136 -49 -153 -61 -317 -225
-182 -182 -192 -195 -222 -296 -16 -53 -47 -133 -68 -178 -35 -71 -40 -124
-40 -401 0 -355 -10 -388 -125 -426 -36 -12 -100 -58 -143 -102 -42 -44 -90
-80 -105 -80 -22 0 -27 -115 -27 -665 l0 -666 44 -19 c30 -14 58 -59 85 -141
44 -128 54 -143 228 -317 178 -177 188 -185 273 -211 157 -47 190 -65 190
-103 0 -36 28 -38 680 -38 652 0 680 2 680 38 0 38 33 56 190 103 86 27 99 37
275 213 175 175 182 185 225 315 27 83 54 127 85 141 l45 19 0 666 c0 642 -1
665 -38 665 -21 0 -67 35 -101 79 -35 44 -93 88 -132 101 -120 40 -129 71
-129 428 0 277 -5 330 -40 401 -21 45 -52 125 -68 178 -30 101 -40 114 -222
296 -164 164 -181 176 -317 225 -81 29 -130 58 -143 88 -19 42 -29 44 -310 44
-281 0 -291 -2 -310 -44z m675 -275 c170 -87 339 -240 409 -369 100 -184 103
-200 118 -527 17 -390 5 -425 -141 -425 -137 0 -151 33 -151 363 0 151 -9 298
-20 327 -42 111 -60 23 -60 -295 0 -432 48 -395 -517 -395 -572 0 -523 -36
-523 392 0 321 -18 409 -60 298 -11 -29 -20 -176 -20 -327 0 -330 -14 -363
-150 -363 -124 0 -150 44 -149 249 1 298 32 552 75 609 21 29 45 74 54 101 22
71 260 297 351 334 43 17 79 39 79 49 0 93 513 78 705 -21z m867 -1590 c23
-31 28 -148 28 -608 l0 -570 -73 -148 c-97 -195 -257 -355 -452 -452 l-148
-73 -587 0 -587 0 -148 73 c-181 90 -348 250 -445 429 l-69 128 -7 569 c-7
621 -4 654 62 681 101 41 2394 14 2426 -29z"/>
<path d="M1324 3459 c-90 -36 -21 -59 176 -59 200 0 266 23 170 60 -65 25
-284 24 -346 -1z"/>
<path d="M1135 3338 c-49 -28 -44 -58 10 -58 59 1 104 30 86 58 -16 27 -50 27
-96 0z"/>
<path d="M1769 3338 c-18 -28 27 -57 86 -58 55 0 59 31 6 59 -49 27 -75 26
-92 -1z"/>
<path d="M1029 3218 c-17 -54 24 -101 52 -58 28 45 23 100 -10 100 -15 0 -34
-19 -42 -42z"/>
<path d="M1900 3225 c0 -19 9 -48 19 -65 28 -43 69 4 52 58 -16 51 -71 56 -71
7z"/>
<path d="M1352 1528 c-92 -92 -100 -230 -23 -394 27 -57 58 -128 69 -158 41
-110 166 -99 215 19 17 41 48 113 69 159 136 300 -117 587 -330 374z"/>
</g>
</svg>
