<?xml version="1.0" standalone="no"?>
<!DOCTYPE svg PUBLIC "-//W3C//DTD SVG 20010904//EN"
 "http://www.w3.org/TR/2001/REC-SVG-20010904/DTD/svg10.dtd">
<svg version="1.0" xmlns="http://www.w3.org/2000/svg"
 width="150.000000pt" height="98.000000pt" viewBox="0 0 150.000000 98.000000"
 preserveAspectRatio="xMidYMid meet">
<metadata>
Created by potrace 1.10, written by Peter Selinger 2001-2011
</metadata>
<g transform="translate(0.000000,98.000000) scale(0.050000,-0.050000)"
fill="#000000" stroke="none">
<path d="M220 1929 c0 -17 -27 -46 -59 -65 -32 -18 -63 -50 -68 -70 -6 -20
-29 -42 -52 -48 -65 -17 -65 -1515 0 -1532 23 -6 46 -28 52 -48 5 -20 36 -52
68 -70 32 -19 59 -48 59 -65 0 -28 138 -31 1280 -31 1142 0 1280 3 1280 31 0
17 27 46 59 65 32 18 63 50 68 70 6 20 29 42 52 48 65 17 65 1515 0 1532 -23
6 -46 28 -52 48 -5 20 -36 52 -68 70 -32 19 -59 48 -59 65 0 28 -138 31 -1280
31 -1142 0 -1280 -3 -1280 -31z m2539 -208 c68 -67 74 -96 32 -152 -17 -22
-30 -52 -30 -69 -1 -18 -22 -31 -52 -33 -60 -3 -78 -16 -60 -45 8 -14 28 -13
61 2 102 46 110 13 110 -444 0 -457 -8 -490 -110 -444 -34 16 -52 16 -62 1
-17 -28 32 -60 77 -49 22 5 35 -4 36 -25 0 -18 13 -50 30 -72 42 -56 36 -85
-32 -152 l-60 -59 -1201 0 -1201 0 -59 58 c-65 66 -71 97 -29 153 17 22 30 54
30 72 1 21 14 30 36 25 45 -11 94 21 77 49 -10 15 -28 15 -62 -1 -102 -46
-110 -13 -110 444 0 457 8 490 110 444 34 -16 52 -16 62 -1 17 28 -32 60 -77
49 -22 -5 -35 4 -36 25 0 18 -13 50 -30 72 -42 56 -36 85 32 152 l60 59 1199
0 1199 0 60 -59z"/>
<path d="M384 1357 c11 -31 74 -37 81 -7 3 11 -16 23 -42 27 -33 4 -45 -2 -39
-20z"/>
<path d="M2530 1360 c-15 -25 40 -49 69 -31 12 8 21 22 21 32 0 25 -74 24 -90
-1z"/>
<path d="M494 1287 c-24 -23 8 -47 62 -46 52 0 52 1 15 30 -43 32 -58 35 -77
16z"/>
<path d="M2429 1270 c-37 -30 -36 -31 21 -25 33 3 58 14 57 25 -6 32 -37 32
-78 0z"/>
<path d="M632 1184 c-6 -10 12 -29 40 -41 45 -21 50 -19 44 12 -7 38 -65 58
-84 29z"/>
<path d="M2293 1187 c-36 -37 -12 -66 36 -44 28 13 45 31 39 40 -12 20 -56 22
-75 4z"/>
<path d="M750 1080 c-7 -11 11 -30 39 -43 66 -30 65 -84 -2 -115 -37 -17 -47
-30 -32 -45 23 -23 105 -5 105 24 0 11 27 19 60 19 88 0 76 47 -31 119 -98 66
-120 72 -139 41z"/>
<path d="M2105 1037 c-101 -71 -111 -117 -25 -117 33 0 60 -8 60 -19 0 -29 82
-47 105 -24 15 15 5 28 -32 45 -67 31 -68 85 -2 115 28 13 46 32 39 43 -19 31
-53 21 -145 -43z"/>
<path d="M990 900 c-7 -11 -5 -20 4 -20 9 0 37 -6 64 -13 34 -9 45 -6 39 13
-11 32 -90 47 -107 20z"/>
<path d="M1909 899 c-20 -33 1 -42 59 -28 28 7 47 21 41 31 -16 25 -84 23
-100 -3z"/>
<path d="M665 815 c-60 -28 -57 -53 6 -46 61 7 83 26 58 49 -11 10 -38 9 -64
-3z"/>
<path d="M2268 817 c-15 -25 27 -56 77 -57 51 0 43 30 -14 56 -35 16 -53 16
-63 1z"/>
<path d="M1124 797 c5 -15 30 -30 55 -34 31 -4 43 2 37 20 -5 15 -30 30 -55
34 -31 4 -43 -2 -37 -20z"/>
<path d="M1793 807 c-27 -28 -12 -50 30 -43 55 8 74 56 22 56 -21 0 -44 -6
-52 -13z"/>
<path d="M1240 710 c0 -21 20 -30 65 -29 61 0 63 2 26 30 -50 37 -91 37 -91
-1z"/>
<path d="M1669 711 c-37 -28 -35 -30 26 -30 45 -1 65 8 65 29 0 38 -41 38 -91
1z"/>
<path d="M491 701 c-19 -30 25 -44 69 -21 22 12 40 26 40 31 0 17 -98 9 -109
-10z"/>
<path d="M2429 690 c42 -32 75 -32 73 1 0 10 -26 21 -56 24 -54 6 -54 5 -17
-25z"/>
<path d="M394 627 c-27 -27 -13 -50 27 -43 22 3 41 15 41 26 0 24 -49 37 -68
17z"/>
<path d="M1385 615 c15 -47 235 -42 235 5 0 11 -55 20 -122 20 -88 0 -119 -7
-113 -25z"/>
<path d="M2535 628 c-22 -22 4 -48 48 -48 23 0 37 10 32 25 -9 29 -60 43 -80
23z"/>
</g>
</svg>
