<?xml version="1.0" standalone="no"?>
<!DOCTYPE svg PUBLIC "-//W3C//DTD SVG 20010904//EN"
 "http://www.w3.org/TR/2001/REC-SVG-20010904/DTD/svg10.dtd">
<svg version="1.0" xmlns="http://www.w3.org/2000/svg"
 width="150.000000pt" height="150.000000pt" viewBox="0 0 150.000000 150.000000"
 preserveAspectRatio="xMidYMid meet">
<metadata>
Created by potrace 1.10, written by Peter Selinger 2001-2011
</metadata>
<g transform="translate(0.000000,150.000000) scale(0.050000,-0.050000)"
fill="#000000" stroke="none">
<path d="M2180 2969 c0 -17 -25 -45 -55 -63 -56 -32 -191 -190 -245 -287 -104
-186 -223 -311 -390 -410 l-100 -59 -560 -10 -560 -10 -76 -58 c-42 -32 -89
-88 -104 -125 -15 -37 -42 -67 -59 -67 -26 0 -31 -32 -31 -190 0 -146 6 -190
27 -190 15 0 42 -34 61 -75 41 -89 167 -175 285 -194 53 -9 102 -35 140 -74
l57 -60 6 -486 c6 -453 9 -489 45 -522 21 -19 39 -47 39 -62 0 -21 59 -27 280
-27 189 0 280 7 280 22 0 12 18 45 40 73 56 71 54 202 -5 277 -56 71 -70 751
-18 815 34 41 136 42 203 4 28 -16 68 -38 90 -48 64 -29 255 -226 310 -318
286 -484 586 -568 849 -239 28 35 61 75 72 89 12 14 33 59 48 100 15 41 41
102 59 135 17 33 32 80 32 104 0 96 44 246 72 246 23 0 28 72 28 430 0 354 -5
430 -28 430 -29 0 -45 45 -72 210 -15 87 -91 270 -167 403 -38 66 -118 146
-178 178 -30 17 -55 43 -55 60 0 23 -32 29 -160 29 -131 0 -160 -6 -160 -31z
m278 -178 c100 -52 234 -262 274 -431 14 -60 40 -159 57 -219 35 -124 43 -732
11 -871 -143 -624 -390 -870 -636 -632 -112 109 -244 407 -244 551 0 20 139
51 229 51 288 0 462 386 308 684 -78 152 -154 200 -340 216 -200 18 -205 23
-170 175 87 372 310 580 511 476z m-757 -716 c15 -238 0 -782 -21 -795 -26
-16 -123 15 -224 71 -30 17 -114 36 -187 43 -98 9 -138 22 -156 49 -29 47 -44
46 -93 -3 -37 -37 -67 -40 -378 -40 l-339 0 -61 84 c-108 146 -75 392 63 479
14 9 163 17 331 17 306 0 368 -11 416 -76 18 -25 26 -23 54 17 27 37 59 50
169 62 77 9 178 37 235 66 109 54 189 65 191 26z m574 -160 c200 -209 72 -515
-215 -515 -197 0 -200 4 -200 290 0 285 3 290 197 290 149 0 158 -3 218 -65z
m-1274 -696 c36 -19 39 -45 39 -400 0 -371 1 -382 52 -480 73 -139 53 -159
-162 -159 -204 0 -185 -52 -192 540 -6 466 -4 487 33 502 58 22 186 21 230 -3z"/>
<path d="M970 1836 c-19 -48 -2 -306 20 -306 27 0 37 291 12 316 -14 14 -24
11 -32 -10z"/>
</g>
</svg>
