<?xml version="1.0" standalone="no"?>
<!DOCTYPE svg PUBLIC "-//W3C//DTD SVG 20010904//EN"
 "http://www.w3.org/TR/2001/REC-SVG-20010904/DTD/svg10.dtd">
<svg version="1.0" xmlns="http://www.w3.org/2000/svg"
 width="150.000000pt" height="150.000000pt" viewBox="0 0 150.000000 150.000000"
 preserveAspectRatio="xMidYMid meet">
<metadata>
Created by potrace 1.10, written by Peter Selinger 2001-2011
</metadata>
<g transform="translate(0.000000,150.000000) scale(0.050000,-0.050000)"
fill="#000000" stroke="none">
<path d="M2590 2969 c-12 -19 -73 -39 -160 -51 -77 -11 -207 -35 -290 -52 -82
-17 -213 -39 -290 -49 -144 -19 -254 -40 -410 -75 -49 -12 -133 -26 -185 -33
-69 -8 -111 -28 -155 -72 l-60 -60 0 -787 c0 -945 12 -888 -171 -808 -248 110
-722 -80 -798 -319 -8 -24 -27 -43 -42 -43 -23 0 -29 -34 -29 -160 0 -124 6
-160 28 -160 15 0 47 -32 70 -71 23 -39 70 -86 106 -105 35 -19 85 -54 111
-79 58 -55 445 -70 445 -17 0 15 38 43 84 61 111 45 212 134 291 259 l64 102
1 780 c0 429 8 792 17 806 21 34 354 116 539 133 81 8 182 26 224 41 43 15
165 37 271 49 107 12 236 36 288 53 52 17 134 28 183 24 l88 -6 5 -546 c6
-607 5 -610 -123 -535 -324 190 -892 -137 -892 -514 0 -495 873 -590 1108
-120 18 36 46 65 63 65 55 0 43 2212 -12 2226 -23 6 -47 30 -53 53 -14 54
-282 63 -316 10z m206 -173 c26 -26 33 -212 9 -249 -20 -30 -301 -100 -473
-117 -76 -8 -189 -27 -250 -43 -62 -16 -188 -38 -282 -49 -93 -10 -210 -31
-260 -47 -265 -82 -340 -61 -340 95 0 112 39 174 108 174 23 0 83 13 132 28
50 15 158 33 240 41 83 8 213 31 290 51 77 20 203 42 280 49 77 8 181 26 230
41 167 51 281 61 316 26z m-166 -1696 c384 -186 132 -661 -337 -637 -241 12
-360 140 -327 349 38 233 428 402 664 288z m-1698 -330 c168 -138 118 -424
-89 -510 -29 -11 -75 -34 -103 -50 -150 -87 -488 3 -542 144 -131 346 430 664
734 416z"/>
</g>
</svg>
