<?xml version="1.0" standalone="no"?>
<!DOCTYPE svg PUBLIC "-//W3C//DTD SVG 20010904//EN"
 "http://www.w3.org/TR/2001/REC-SVG-20010904/DTD/svg10.dtd">
<svg version="1.0" xmlns="http://www.w3.org/2000/svg"
 width="150.000000pt" height="150.000000pt" viewBox="0 0 150.000000 150.000000"
 preserveAspectRatio="xMidYMid meet">
<metadata>
Created by potrace 1.10, written by Peter Selinger 2001-2011
</metadata>
<g transform="translate(0.000000,150.000000) scale(0.050000,-0.050000)"
fill="#000000" stroke="none">
<path d="M520 2978 c0 -13 -26 -53 -58 -89 -45 -51 -62 -94 -72 -183 -7 -64
-14 -129 -16 -146 -3 -19 -38 -34 -102 -44 -70 -10 -115 -31 -161 -75 -34 -33
-74 -61 -87 -61 -18 0 -24 -252 -24 -1080 0 -759 6 -1080 22 -1080 28 0 198
-170 198 -198 0 -16 378 -22 1280 -22 902 0 1280 6 1280 22 0 28 170 198 198
198 16 0 22 386 22 1310 0 1068 -5 1310 -26 1310 -33 0 -134 103 -134 136 0
18 -274 24 -1160 24 -842 0 -1160 -6 -1160 -22z m2276 -182 c18 -18 24 -325
24 -1261 l0 -1236 -61 -60 -60 -59 -1201 0 -1201 0 -59 58 -58 59 0 996 c1
1055 -1 1033 87 1055 115 28 113 50 115 -935 2 -1000 2 -1003 89 -1003 l59 0
10 1172 c8 953 15 1178 37 1205 36 43 2177 51 2219 9z"/>
<path d="M850 2607 c-81 -21 -90 -60 -90 -390 0 -173 9 -337 20 -366 l19 -51
370 0 c345 0 371 3 390 39 26 48 27 700 1 741 -19 30 -609 53 -710 27z m539
-178 c39 -40 45 -407 7 -445 -33 -33 -419 -33 -452 0 -39 39 -32 394 9 439 45
51 387 55 436 6z"/>
<path d="M1810 2400 c-7 -11 0 -25 14 -31 51 -19 756 0 756 21 0 28 -753 38
-770 10z"/>
<path d="M1810 2120 c-7 -11 0 -25 14 -31 51 -19 756 0 756 21 0 28 -753 38
-770 10z"/>
<path d="M1810 1840 c-7 -11 0 -25 14 -31 51 -19 756 0 756 21 0 28 -753 38
-770 10z"/>
<path d="M794 1567 c-8 -8 -14 -21 -14 -30 0 -9 410 -17 912 -17 720 0 910 5
903 25 -9 27 -1775 49 -1801 22z"/>
<path d="M794 1287 c-8 -8 -14 -21 -14 -30 0 -9 410 -17 912 -17 720 0 910 5
903 25 -9 27 -1775 49 -1801 22z"/>
<path d="M794 1007 c-40 -40 19 -47 378 -47 304 0 389 6 383 25 -9 27 -735 48
-761 22z"/>
<path d="M1814 1008 c-38 -38 43 -48 399 -48 303 0 388 6 382 25 -9 27 -755
49 -781 23z"/>
<path d="M789 719 c-26 -43 21 -49 381 -49 360 0 407 6 381 49 -18 29 -744 29
-762 0z"/>
<path d="M1810 720 c-28 -45 108 -63 433 -57 330 7 374 14 348 56 -18 28 -764
29 -781 1z"/>
<path d="M801 441 c-63 -40 16 -51 369 -51 353 0 432 11 369 51 -38 24 -700
24 -738 0z"/>
<path d="M1830 441 c-97 -40 76 -64 413 -58 324 7 397 19 336 58 -36 23 -693
23 -749 0z"/>
</g>
</svg>
