<?xml version="1.0" standalone="no"?>
<!DOCTYPE svg PUBLIC "-//W3C//DTD SVG 20010904//EN"
 "http://www.w3.org/TR/2001/REC-SVG-20010904/DTD/svg10.dtd">
<svg version="1.0" xmlns="http://www.w3.org/2000/svg"
 width="150.000000pt" height="141.000000pt" viewBox="0 0 150.000000 141.000000"
 preserveAspectRatio="xMidYMid meet">
<metadata>
Created by potrace 1.10, written by Peter Selinger 2001-2011
</metadata>
<g transform="translate(0.000000,141.000000) scale(0.050000,-0.050000)"
fill="#000000" stroke="none">
<path d="M160 2796 c0 -33 -101 -136 -134 -136 -21 0 -26 -231 -26 -1250 0
-1019 5 -1250 26 -1250 33 0 134 -103 134 -136 0 -18 314 -24 1340 -24 1093 0
1340 5 1340 26 0 33 103 134 136 134 18 0 24 238 24 1000 0 648 -7 1000 -20
1000 -26 0 -640 614 -640 640 0 13 -382 20 -1090 20 -832 0 -1090 -6 -1090
-24z m2001 -386 c6 -121 17 -231 26 -245 38 -61 53 -12 53 171 0 323 8 324
304 28 233 -233 244 -247 207 -275 -57 -43 -431 -42 -431 1 0 17 -14 30 -31
30 -29 0 36 -115 70 -123 6 -1 110 -8 231 -15 l220 -12 5 -868 c4 -624 -1
-875 -17 -895 -32 -37 -2556 -41 -2594 -3 -35 35 -35 2377 0 2412 19 19 255
23 985 19 l961 -5 11 -220z"/>
<path d="M436 2326 c-60 -15 -82 -628 -24 -686 14 -14 153 -19 399 -15 l379 5
5 335 6 336 -52 19 c-50 19 -644 24 -713 6z m580 -170 c25 -25 34 -287 12
-344 -20 -53 -439 -46 -467 7 -34 64 -26 282 12 324 40 45 401 55 443 13z"/>
<path d="M1434 2228 c-35 -36 29 -48 259 -48 191 0 248 6 242 25 -9 27 -475
48 -501 23z"/>
<path d="M1434 1948 c-35 -36 29 -48 259 -48 191 0 248 6 242 25 -9 27 -475
48 -501 23z"/>
<path d="M1454 1667 c-41 -41 36 -47 568 -47 456 0 580 5 573 25 -9 27 -1115
49 -1141 22z"/>
<path d="M409 1379 c-28 -46 46 -49 1091 -49 1045 0 1119 3 1091 49 -19 30
-2163 30 -2182 0z"/>
<path d="M421 1101 c-71 -45 61 -51 1079 -51 1018 0 1150 6 1079 51 -39 25
-2119 25 -2158 0z"/>
<path d="M445 826 c-52 -10 -59 -36 -13 -54 52 -20 2115 -13 2147 7 17 10 23
26 14 35 -17 17 -2068 28 -2148 12z"/>
<path d="M444 546 c-26 -5 -43 -20 -38 -33 10 -32 2177 -33 2188 -1 4 13 -21
28 -56 35 -70 14 -2020 13 -2094 -1z"/>
</g>
</svg>
