<?xml version="1.0" standalone="no"?>
<!DOCTYPE svg PUBLIC "-//W3C//DTD SVG 20010904//EN"
 "http://www.w3.org/TR/2001/REC-SVG-20010904/DTD/svg10.dtd">
<svg version="1.0" xmlns="http://www.w3.org/2000/svg"
 width="150.000000pt" height="150.000000pt" viewBox="0 0 150.000000 150.000000"
 preserveAspectRatio="xMidYMid meet">
<metadata>
Created by potrace 1.10, written by Peter Selinger 2001-2011
</metadata>
<g transform="translate(0.000000,150.000000) scale(0.050000,-0.050000)"
fill="#000000" stroke="none">
<path d="M2820 2960 c0 -22 -7 -40 -16 -40 -14 0 -74 -38 -294 -187 -22 -15
-93 -62 -157 -105 -65 -43 -138 -91 -162 -108 -49 -33 -123 -80 -173 -110 -64
-39 -289 -190 -328 -221 -45 -35 -380 -258 -478 -319 -36 -22 -104 -67 -152
-100 -47 -33 -105 -71 -128 -84 -23 -13 -60 -38 -82 -56 -33 -25 -174 -119
-514 -340 -86 -56 -152 -103 -203 -144 -31 -25 -73 -46 -95 -46 -30 0 -38 -14
-38 -70 0 -60 7 -70 46 -70 25 0 80 -18 123 -40 43 -21 110 -49 149 -62 40
-12 91 -34 114 -49 23 -14 78 -36 123 -48 134 -36 263 -119 306 -198 49 -89
127 -226 191 -333 26 -44 62 -114 81 -155 47 -105 122 -105 173 0 132 276 199
334 307 263 31 -21 71 -38 87 -38 17 0 75 -23 130 -50 55 -27 114 -49 130 -50
17 -1 75 -23 130 -50 55 -27 111 -50 124 -50 46 0 126 -47 126 -73 0 -18 26
-27 79 -27 l79 0 13 95 c7 52 26 153 42 225 15 72 38 207 49 300 11 94 38 247
59 340 21 94 44 238 51 320 8 83 26 191 41 240 15 50 37 176 48 280 12 105 35
244 52 309 17 66 39 199 49 297 23 225 36 274 70 274 22 0 28 37 28 160 l0
160 -90 0 c-77 0 -90 -6 -90 -40z m-258 -576 c-25 -8 -31 -144 -6 -144 31 0
64 49 64 94 0 25 12 46 26 46 83 0 95 -129 36 -361 -21 -82 -44 -216 -51 -299
-7 -82 -26 -195 -41 -251 -16 -55 -38 -186 -50 -290 -11 -104 -34 -234 -49
-289 -16 -55 -34 -167 -41 -250 -34 -390 -135 -472 -383 -310 -25 17 -62 30
-81 30 -20 0 -63 15 -96 32 -33 18 -109 50 -170 71 -61 21 -144 71 -187 113
-48 46 -81 65 -87 50 -5 -14 -31 -57 -57 -96 -27 -39 -62 -98 -79 -131 -51
-99 -136 -83 -200 36 -29 52 -75 138 -104 191 -42 77 -48 104 -31 140 12 24
26 60 33 79 6 19 22 35 36 35 14 0 41 27 60 60 33 58 33 60 -5 60 -26 0 -39
-14 -39 -40 0 -25 -19 -48 -47 -59 -26 -10 -53 -33 -61 -52 -16 -42 -162 -25
-272 31 -38 20 -106 46 -150 58 -98 28 -200 108 -185 146 9 22 474 349 637
446 47 29 284 186 308 204 11 9 124 84 250 168 127 83 253 166 280 184 28 19
100 66 160 107 61 40 134 89 164 110 80 54 136 49 136 -14 0 -27 -12 -55 -27
-61 -59 -22 -119 -128 -74 -128 26 0 41 13 41 37 0 20 23 47 50 59 28 13 50
37 50 54 0 16 12 30 26 30 15 0 46 27 71 60 28 39 62 60 94 60 32 0 50 12 51
35 2 29 4 28 13 -4 5 -22 0 -43 -13 -47z"/>
<path d="M2475 2226 c-30 -52 -34 -126 -8 -126 24 0 50 55 55 114 2 22 -37 31
-47 12z"/>
<path d="M2084 2060 c-31 -51 -30 -60 5 -60 39 0 57 33 37 69 -14 25 -21 24
-42 -9z"/>
<path d="M2372 2068 c-21 -54 -13 -112 13 -103 29 10 46 135 18 135 -10 0 -24
-14 -31 -32z"/>
<path d="M1985 1940 c-22 -35 -20 -40 15 -40 27 0 40 13 40 40 0 22 -7 40 -15
40 -9 0 -27 -18 -40 -40z"/>
<path d="M2272 1908 c-19 -49 -14 -108 8 -108 20 0 60 82 60 121 0 32 -55 21
-68 -13z"/>
<path d="M2179 1758 c-12 -22 -17 -55 -10 -72 17 -45 71 5 71 66 0 59 -31 62
-61 6z"/>
<path d="M1801 1752 c-16 -20 -16 -33 -2 -41 28 -18 61 4 61 40 0 37 -28 37
-59 1z"/>
<path d="M1707 1649 c-7 -17 -7 -36 0 -43 17 -17 75 35 62 56 -17 28 -49 21
-62 -13z"/>
<path d="M2082 1597 c-28 -79 -28 -77 7 -77 33 0 41 11 59 85 19 80 -38 73
-66 -8z"/>
<path d="M1610 1560 c-22 -35 10 -65 42 -39 15 13 28 32 28 41 0 25 -55 23
-70 -2z"/>
<path d="M1988 1449 c-7 -28 -6 -57 1 -65 17 -17 71 52 71 90 0 47 -59 27 -72
-25z"/>
<path d="M1433 1387 c-7 -8 -13 -26 -13 -40 0 -36 53 -35 66 1 17 42 -21 70
-53 39z"/>
<path d="M1899 1318 c-33 -62 -6 -121 32 -69 33 44 39 111 10 111 -11 0 -30
-19 -42 -42z"/>
<path d="M1329 1278 c-7 -12 -4 -31 7 -42 25 -25 64 -4 64 35 0 34 -51 39 -71
7z"/>
<path d="M1813 1207 c-19 -20 -16 -127 4 -127 23 0 59 85 48 115 -9 27 -31 32
-52 12z"/>
<path d="M1247 1169 c-7 -17 -7 -36 0 -43 17 -17 75 35 62 56 -17 28 -49 21
-62 -13z"/>
<path d="M1148 1071 c-20 -50 13 -77 43 -37 15 20 28 43 28 51 2 27 -60 15
-71 -14z"/>
<path d="M1725 1046 c-30 -53 -32 -106 -4 -106 28 0 44 47 35 104 l-7 46 -24
-44z"/>
<path d="M1612 857 c-21 -109 32 -101 59 8 10 41 6 55 -16 55 -18 0 -35 -26
-43 -63z"/>
<path d="M1533 750 c-19 -50 -16 -110 7 -110 28 0 49 99 25 123 -13 13 -24 9
-32 -13z"/>
</g>
</svg>
