<?xml version="1.0" standalone="no"?>
<!DOCTYPE svg PUBLIC "-//W3C//DTD SVG 20010904//EN"
 "http://www.w3.org/TR/2001/REC-SVG-20010904/DTD/svg10.dtd">
<svg version="1.0" xmlns="http://www.w3.org/2000/svg"
 width="150.000000pt" height="150.000000pt" viewBox="0 0 150.000000 150.000000"
 preserveAspectRatio="xMidYMid meet">
<metadata>
Created by potrace 1.10, written by Peter Selinger 2001-2011
</metadata>
<g transform="translate(0.000000,150.000000) scale(0.050000,-0.050000)"
fill="#000000" stroke="none">
<path d="M340 2977 c0 -12 -31 -57 -70 -100 -69 -76 -70 -80 -70 -254 0 -188
-14 -221 -158 -379 -52 -56 -64 -344 -15 -344 15 0 60 -53 100 -118 l73 -118
0 -732 0 -732 70 -77 c39 -43 70 -88 70 -100 0 -15 47 -23 130 -23 96 0 130 7
130 27 0 15 19 44 42 65 96 87 98 102 98 862 1 532 7 727 25 758 14 23 54 86
90 140 109 166 85 330 -79 546 -28 37 -36 84 -36 213 0 159 -3 170 -70 258
-39 50 -70 100 -70 111 0 11 -57 20 -130 20 -83 0 -130 -8 -130 -23z m197
-183 c81 -98 40 -274 -65 -274 -93 0 -119 39 -107 162 12 128 107 190 172 112z
m140 -545 c264 -277 -142 -650 -412 -379 -89 89 -90 90 -81 208 19 273 302
371 493 171z m-118 -677 c36 -44 21 -1314 -16 -1359 -31 -36 -97 -43 -143 -13
-39 24 -57 1326 -18 1372 30 36 146 36 177 0z"/>
<path d="M1380 2984 c0 -9 -31 -54 -70 -99 l-70 -81 0 -717 c0 -787 9 -719
-130 -942 -67 -108 -83 -311 -29 -376 15 -18 37 -49 48 -68 12 -20 39 -61 61
-92 31 -44 42 -97 47 -237 7 -172 11 -185 75 -260 37 -44 68 -87 68 -96 0 -9
54 -16 120 -16 66 0 120 7 120 16 0 9 31 52 68 96 64 75 68 88 75 260 5 140
16 193 47 237 22 31 49 72 61 92 11 19 33 50 49 69 66 80 36 287 -61 428 l-89
128 -6 740 -5 739 -70 81 c-38 45 -69 89 -69 98 0 9 -54 16 -120 16 -66 0
-120 -7 -120 -16z m198 -191 c16 -20 21 -222 17 -705 l-5 -678 -90 0 -90 0 -5
678 c-6 726 -5 732 95 732 30 0 65 -12 78 -27z m111 -1641 c134 -126 135 -298
2 -430 -189 -189 -526 -5 -480 263 37 220 318 318 478 167z m-101 -704 c64
-168 -58 -350 -164 -244 -25 25 -33 189 -12 244 17 44 159 44 176 0z"/>
<path d="M2400 2976 c0 -13 -29 -54 -65 -91 -61 -63 -64 -75 -75 -264 -7 -141
-19 -207 -42 -234 -165 -190 -182 -370 -53 -567 l85 -130 10 -754 10 -754 65
-67 c36 -37 65 -78 65 -91 0 -16 42 -24 130 -24 88 0 130 8 130 24 0 13 29 54
65 91 l65 67 10 758 c10 749 10 758 55 814 25 31 54 76 65 101 10 25 33 45 50
45 54 0 42 285 -15 348 -135 148 -144 171 -155 376 -10 186 -14 198 -75 261
-36 37 -65 78 -65 91 0 16 -42 24 -130 24 -88 0 -130 -8 -130 -24z m196 -173
c37 -23 56 -215 24 -253 -39 -47 -154 -39 -181 13 -70 130 47 310 157 240z
m28 -461 c307 -116 234 -562 -92 -562 -267 0 -394 308 -200 485 98 89 194 115
292 77z m-6 -770 c39 -46 21 -1348 -18 -1372 -46 -30 -112 -23 -143 13 -37 45
-52 1315 -16 1359 31 36 147 36 177 0z"/>
</g>
</svg>
