<?xml version="1.0" standalone="no"?>
<!DOCTYPE svg PUBLIC "-//W3C//DTD SVG 20010904//EN"
 "http://www.w3.org/TR/2001/REC-SVG-20010904/DTD/svg10.dtd">
<svg version="1.0" xmlns="http://www.w3.org/2000/svg"
 width="150.000000pt" height="150.000000pt" viewBox="0 0 150.000000 150.000000"
 preserveAspectRatio="xMidYMid meet">
<metadata>
Created by potrace 1.10, written by Peter Selinger 2001-2011
</metadata>
<g transform="translate(0.000000,150.000000) scale(0.050000,-0.050000)"
fill="#000000" stroke="none">
<path d="M2000 2973 c0 -15 -38 -44 -85 -65 -62 -27 -291 -244 -842 -798 -805
-808 -829 -838 -873 -1072 -12 -59 -39 -156 -60 -214 -22 -58 -40 -121 -40
-140 0 -73 -43 -184 -71 -184 -23 0 -29 -32 -29 -150 0 -87 8 -150 20 -150 26
0 180 -154 180 -180 0 -12 63 -20 150 -20 118 0 150 6 150 29 0 30 112 71 194
71 25 0 92 17 150 39 58 21 157 48 220 59 220 39 261 73 1054 875 539 545 759
780 786 841 21 47 51 86 67 86 49 0 42 412 -7 425 -21 5 -46 43 -60 90 -34
112 -277 355 -388 389 -44 13 -91 40 -103 60 -29 47 -413 55 -413 9z m458
-216 c371 -210 475 -580 242 -865 -92 -112 -153 -140 -172 -77 -84 271 -166
401 -348 552 -51 42 -303 153 -346 153 -110 0 -51 118 116 232 142 95 343 97
508 5z m-657 -428 l59 -30 -40 -43 c-48 -52 -51 -76 -8 -76 17 0 36 17 42 38
13 51 154 74 214 35 198 -130 254 -299 129 -389 -45 -32 -48 -64 -5 -64 17 0
36 18 42 40 36 137 136 -10 119 -175 -13 -132 -21 -143 -449 -577 -371 -376
-387 -386 -425 -244 -13 47 -32 97 -42 110 -13 15 -9 40 14 75 43 65 27 109
-36 97 -69 -13 -288 206 -307 306 -10 55 -20 67 -45 56 -98 -43 -313 -10 -313
47 0 27 652 690 743 755 104 74 213 88 308 39z m-826 -1073 c414 -234 484
-841 103 -890 -48 -6 -113 -24 -143 -39 -54 -27 -57 -26 -98 43 -47 81 -56 79
-75 -12 -24 -119 -459 -229 -549 -139 -36 36 -28 241 14 342 69 170 82 186
152 204 l69 18 -63 49 c-52 40 -60 58 -47 94 9 24 23 87 30 139 37 249 336
343 607 191z"/>
<path d="M1701 2132 c-16 -20 -16 -33 -2 -41 28 -18 61 4 61 40 0 37 -28 37
-59 1z"/>
<path d="M1524 1956 c-13 -13 -24 -31 -24 -40 0 -24 56 -19 71 6 21 33 -19 62
-47 34z"/>
<path d="M1420 1850 c-14 -17 -20 -36 -14 -43 21 -20 74 10 74 42 0 40 -28 40
-60 1z"/>
<path d="M1321 1752 c-16 -20 -16 -33 -2 -41 28 -18 61 4 61 40 0 37 -28 37
-59 1z"/>
<path d="M2081 1752 c-16 -20 -16 -33 -2 -41 28 -18 61 4 61 40 0 37 -28 37
-59 1z"/>
<path d="M1244 1676 c-13 -13 -24 -31 -24 -40 0 -24 56 -19 71 6 21 33 -19 62
-47 34z"/>
<path d="M1144 1576 c-13 -13 -24 -31 -24 -40 0 -24 56 -19 71 6 21 33 -19 62
-47 34z"/>
<path d="M1801 1472 c-16 -20 -16 -33 -2 -41 28 -18 61 4 61 40 0 37 -28 37
-59 1z"/>
<path d="M1524 1196 c-13 -13 -24 -31 -24 -40 0 -24 56 -19 71 6 21 33 -19 62
-47 34z"/>
<path d="M491 721 c-8 -12 3 -26 23 -33 20 -6 52 -19 71 -30 28 -15 35 -10 35
22 0 22 -13 40 -28 40 -16 0 -42 5 -58 11 -17 7 -36 2 -43 -10z"/>
<path d="M656 596 c13 -13 24 -40 24 -60 0 -20 14 -36 32 -36 21 0 28 11 20
32 -7 17 -12 44 -12 60 0 16 -19 28 -44 28 -34 0 -39 -5 -20 -24z"/>
</g>
</svg>
