<?xml version="1.0" standalone="no"?>
<!DOCTYPE svg PUBLIC "-//W3C//DTD SVG 20010904//EN"
 "http://www.w3.org/TR/2001/REC-SVG-20010904/DTD/svg10.dtd">
<svg version="1.0" xmlns="http://www.w3.org/2000/svg"
 width="150.000000pt" height="218.000000pt" viewBox="0 0 150.000000 218.000000"
 preserveAspectRatio="xMidYMid meet">
<metadata>
Created by potrace 1.10, written by Peter Selinger 2001-2011
</metadata>
<g transform="translate(0.000000,218.000000) scale(0.050000,-0.050000)"
fill="#000000" stroke="none">
<path d="M220 4324 c0 -45 -140 -184 -186 -184 -32 0 -34 -125 -34 -1961 0
-1269 7 -1957 20 -1949 28 17 200 -148 200 -193 0 -36 42 -37 1280 -37 1206 0
1280 2 1280 35 1 46 145 205 187 205 30 0 33 150 33 1940 0 1790 -3 1940 -33
1940 -42 0 -186 159 -187 205 0 33 -74 35 -1280 35 -1218 0 -1280 -2 -1280
-36z m2471 -273 c62 -62 72 -292 16 -354 -49 -54 -2351 -58 -2410 -4 -61 55
-53 293 12 358 l49 49 1142 0 1142 0 49 -49z m12 -524 c54 -49 58 -2631 4
-2690 -49 -54 -2351 -58 -2410 -4 -54 49 -58 2631 -4 2690 49 54 2351 58 2410
4z m0 -2860 c38 -34 52 -219 25 -320 -23 -85 -57 -87 -1240 -87 l-1130 0 -49
49 c-62 62 -72 292 -16 354 49 54 2351 58 2410 4z"/>
<path d="M1330 3924 c-34 -8 -60 -28 -60 -44 0 -37 422 -56 457 -21 55 55
-237 102 -397 65z"/>
<path d="M1410 499 c-24 -38 21 -62 102 -55 53 4 78 16 78 36 0 37 -159 54
-180 19z"/>
</g>
</svg>
