<?xml version="1.0" standalone="no"?>
<!DOCTYPE svg PUBLIC "-//W3C//DTD SVG 20010904//EN"
 "http://www.w3.org/TR/2001/REC-SVG-20010904/DTD/svg10.dtd">
<svg version="1.0" xmlns="http://www.w3.org/2000/svg"
 width="150.000000pt" height="160.000000pt" viewBox="0 0 150.000000 160.000000"
 preserveAspectRatio="xMidYMid meet">
<metadata>
Created by potrace 1.10, written by Peter Selinger 2001-2011
</metadata>
<g transform="translate(0.000000,160.000000) scale(0.050000,-0.050000)"
fill="#000000" stroke="none">
<path d="M240 3169 c0 -17 -25 -45 -57 -63 -31 -18 -71 -58 -89 -89 -18 -32
-46 -57 -63 -57 -28 0 -31 -146 -31 -1360 0 -1214 3 -1360 31 -1360 17 0 45
-25 63 -57 18 -31 58 -71 89 -89 32 -18 57 -46 57 -63 0 -28 136 -31 1260 -31
1124 0 1260 3 1260 31 0 17 25 45 57 63 31 18 71 58 89 89 18 32 46 57 63 57
28 0 31 146 31 1360 0 1214 -3 1360 -31 1360 -17 0 -45 25 -63 57 -18 31 -58
71 -89 89 -32 18 -57 46 -57 63 0 28 -136 31 -1260 31 -1124 0 -1260 -3 -1260
-31z m2505 -224 l65 -66 0 -1279 0 -1279 -65 -66 -66 -65 -1179 0 -1179 0 -66
65 -65 66 0 1278 0 1278 58 61 c78 82 6 77 1287 75 l1144 -3 66 -65z"/>
<path d="M444 2756 c-35 -35 -35 -1877 0 -1912 35 -35 2077 -35 2112 0 35 35
35 1877 0 1912 -35 35 -2077 35 -2112 0z m2045 -67 c40 -41 47 -1192 8 -1278
-30 -64 -91 -66 -120 -3 -12 27 -39 53 -59 58 -22 6 -38 28 -38 51 0 51 -30
71 -71 48 -29 -16 -29 -20 0 -44 17 -14 31 -37 31 -51 0 -14 19 -30 41 -36 23
-6 47 -30 53 -53 6 -23 27 -41 48 -41 25 0 38 -14 38 -43 0 -23 23 -63 50 -89
63 -58 73 -243 16 -299 -56 -56 -311 -31 -383 38 -66 64 -75 65 -89 13 -19
-72 -96 -80 -794 -80 -602 0 -681 4 -710 33 -61 61 -36 827 29 896 42 44 46
58 25 87 -72 100 -84 163 -84 462 0 245 6 305 31 331 48 47 1930 47 1978 0z"/>
<path d="M1776 2449 c-14 -18 -41 -47 -60 -65 -18 -19 -47 -46 -65 -60 -48
-40 -39 -264 11 -264 10 0 18 63 18 140 0 127 4 140 40 140 27 0 40 13 40 40
0 36 13 40 140 40 127 0 140 -4 140 -40 0 -22 13 -40 30 -40 32 0 -11 90 -60
125 -39 28 -207 16 -234 -16z"/>
<path d="M2120 2200 c0 -90 7 -121 25 -115 16 5 25 47 25 115 0 68 -9 110 -25
115 -18 6 -25 -25 -25 -115z"/>
<path d="M834 2268 c-36 -36 -11 -84 50 -96 72 -14 103 6 93 61 -7 38 -114 64
-143 35z"/>
<path d="M724 2110 c-13 -27 -35 -50 -49 -50 -32 0 -79 -115 -53 -131 29 -18
58 10 58 54 0 24 17 45 40 51 22 6 40 20 40 32 0 11 15 37 33 57 31 35 31 37
-7 37 -23 0 -49 -21 -62 -50z"/>
<path d="M1007 2123 c18 -20 33 -46 33 -57 0 -12 18 -26 40 -32 24 -6 40 -27
40 -53 0 -47 52 -77 82 -47 13 13 9 29 -11 45 -17 14 -31 38 -31 53 0 16 -14
28 -30 28 -17 0 -41 23 -54 50 -13 29 -39 50 -62 50 -38 0 -38 -2 -7 -37z"/>
<path d="M1734 2005 c49 -77 64 -84 166 -84 102 0 117 7 166 84 30 47 31 55 4
55 -17 0 -30 -18 -30 -40 0 -36 -13 -40 -140 -40 -127 0 -140 4 -140 40 0 22
-13 40 -30 40 -27 0 -26 -8 4 -55z"/>
<path d="M1220 1879 c0 -39 50 -76 72 -53 16 15 -29 94 -53 94 -10 0 -19 -18
-19 -41z"/>
<path d="M1320 1761 c0 -48 23 -64 60 -41 23 14 23 22 1 48 -35 43 -61 40 -61
-7z"/>
<path d="M1413 1671 c-16 -42 45 -87 67 -50 11 16 9 38 -4 53 -27 34 -49 33
-63 -3z"/>
<path d="M2033 1667 c-40 -41 -11 -87 55 -87 66 0 106 40 81 82 -13 21 -116
24 -136 5z"/>
<path d="M1520 1580 c-23 -14 -23 -22 -1 -48 35 -43 61 -40 61 7 0 48 -23 64
-60 41z"/>
<path d="M1924 1510 c-13 -27 -32 -50 -44 -50 -11 0 -38 -18 -60 -40 -56 -56
-117 -51 -140 10 -10 28 -33 50 -50 50 -45 0 -37 -30 30 -103 33 -37 65 -82
71 -102 7 -19 28 -35 48 -35 22 0 42 -20 49 -50 8 -32 27 -50 52 -50 29 0 40
-13 40 -49 0 -53 28 -81 60 -61 26 16 -3 71 -73 141 -68 68 -51 269 24 269 16
0 29 11 29 23 0 13 15 40 33 60 31 35 31 37 -7 37 -23 0 -49 -21 -62 -50z"/>
</g>
</svg>
