<?xml version="1.0" standalone="no"?>
<!DOCTYPE svg PUBLIC "-//W3C//DTD SVG 20010904//EN"
 "http://www.w3.org/TR/2001/REC-SVG-20010904/DTD/svg10.dtd">
<svg version="1.0" xmlns="http://www.w3.org/2000/svg"
 width="150.000000pt" height="150.000000pt" viewBox="0 0 150.000000 150.000000"
 preserveAspectRatio="xMidYMid meet">
<metadata>
Created by potrace 1.10, written by Peter Selinger 2001-2011
</metadata>
<g transform="translate(0.000000,150.000000) scale(0.050000,-0.050000)"
fill="#000000" stroke="none">
<path d="M1600 2971 c0 -18 -39 -41 -99 -59 -271 -80 -579 -382 -655 -642 -17
-55 -40 -113 -53 -128 -35 -42 -31 -479 5 -541 126 -222 116 -244 -327 -681
-194 -192 -367 -375 -383 -405 -16 -30 -42 -55 -59 -55 -22 0 -29 -29 -29
-130 0 -73 9 -130 20 -130 26 0 180 -154 180 -180 0 -11 57 -20 130 -20 96 0
130 7 130 27 0 15 34 51 75 80 41 29 228 207 415 395 414 417 428 423 651 296
62 -36 499 -40 541 -5 15 13 73 36 128 53 264 77 561 380 642 655 18 60 41 99
59 99 24 0 29 47 29 270 0 218 -5 270 -28 270 -27 0 -72 96 -72 155 0 157
-431 562 -665 625 -55 14 -95 37 -95 53 0 21 -55 27 -270 27 -223 0 -270 -5
-270 -29z m580 -194 c28 -18 72 -40 100 -48 170 -51 373 -270 487 -526 74
-165 72 -533 -4 -672 -24 -44 -44 -89 -44 -100 -3 -39 -192 -261 -271 -316
-262 -185 -668 -249 -882 -139 -47 24 -94 44 -105 44 -33 0 -204 125 -267 196
-362 403 -363 903 -4 1320 201 234 783 375 990 241z m-1082 -1685 l107 -109
-43 -56 c-114 -150 -728 -743 -781 -754 -139 -28 -238 63 -213 195 16 82 741
823 813 831 6 0 59 -48 117 -107z"/>
<path d="M1725 2506 c-78 -15 -49 -46 44 -46 91 0 135 26 79 48 -33 13 -48 12
-123 -2z"/>
<path d="M1509 2399 c-20 -33 4 -45 61 -31 28 7 46 22 40 33 -16 26 -84 24
-101 -2z"/>
<path d="M1331 2222 c-6 -10 -3 -39 6 -64 l17 -47 23 43 c38 71 -5 134 -46 68z"/>
<path d="M1253 2051 c-23 -61 -15 -175 12 -166 31 10 44 123 19 167 -17 30
-19 30 -31 -1z"/>
</g>
</svg>
