<?xml version="1.0" standalone="no"?>
<!DOCTYPE svg PUBLIC "-//W3C//DTD SVG 20010904//EN"
 "http://www.w3.org/TR/2001/REC-SVG-20010904/DTD/svg10.dtd">
<svg version="1.0" xmlns="http://www.w3.org/2000/svg"
 width="150.000000pt" height="150.000000pt" viewBox="0 0 150.000000 150.000000"
 preserveAspectRatio="xMidYMid meet">
<metadata>
Created by potrace 1.10, written by Peter Selinger 2001-2011
</metadata>
<g transform="translate(0.000000,150.000000) scale(0.050000,-0.050000)"
fill="#000000" stroke="none">
<path d="M1248 2905 c-23 -52 -58 -149 -79 -215 -56 -181 -164 -235 -259 -131
-19 22 -54 46 -78 53 -23 7 -58 27 -78 45 -41 36 -142 34 -186 -2 -223 -187
-296 -314 -229 -400 20 -25 41 -64 49 -87 7 -24 31 -59 53 -78 104 -95 50
-203 -131 -259 -66 -21 -163 -56 -215 -79 l-95 -42 0 -210 0 -210 95 -42 c52
-23 149 -58 215 -79 181 -56 235 -164 131 -259 -22 -19 -46 -54 -53 -78 -8
-23 -29 -62 -49 -87 -67 -86 6 -213 229 -400 67 -56 269 5 353 106 79 96 195
31 248 -141 21 -66 56 -163 79 -215 l42 -95 210 0 210 0 42 95 c23 52 58 149
79 215 56 181 164 235 259 131 19 -22 54 -46 78 -53 23 -7 58 -27 78 -45 41
-36 142 -34 186 2 223 187 296 314 229 400 -20 25 -41 64 -49 87 -7 24 -31 59
-53 78 -104 95 -50 203 131 259 66 21 163 56 215 79 l95 42 0 210 0 210 -95
42 c-52 23 -149 58 -215 79 -172 54 -237 169 -140 249 197 163 160 342 -118
575 -44 36 -145 38 -186 2 -20 -18 -55 -38 -78 -45 -24 -7 -59 -31 -78 -53
-95 -104 -203 -50 -259 131 -21 66 -56 163 -79 215 l-42 95 -210 0 -210 0 -42
-95z m379 -110 c21 -16 43 -78 59 -168 22 -131 31 -149 102 -205 104 -83 265
-92 343 -20 23 21 49 38 59 38 10 0 37 18 61 41 61 57 175 5 232 -108 l40 -77
-42 -44 c-22 -25 -41 -52 -41 -62 0 -10 -19 -38 -43 -63 -137 -146 -6 -403
226 -441 170 -29 197 -54 197 -186 0 -132 -28 -158 -194 -186 -130 -22 -148
-32 -204 -102 -83 -104 -92 -265 -20 -343 21 -23 38 -49 38 -59 0 -10 19 -37
41 -62 l42 -44 -40 -77 c-57 -113 -171 -165 -232 -108 -24 23 -51 41 -61 41
-10 0 -36 17 -59 38 -78 72 -239 63 -343 -20 -71 -56 -80 -74 -102 -205 -29
-166 -55 -193 -186 -193 -131 0 -158 27 -184 190 -37 234 -297 370 -443 233
-25 -24 -53 -43 -63 -43 -10 0 -37 -18 -61 -41 -61 -57 -175 -5 -232 108 l-40
77 42 44 c22 25 41 52 41 62 0 10 17 36 38 59 72 78 63 239 -20 343 -56 71
-74 80 -205 102 -166 29 -193 55 -193 186 0 132 27 157 197 186 232 38 363
295 226 441 -24 25 -43 53 -43 63 0 10 -19 37 -41 62 l-42 44 40 77 c57 113
171 165 232 108 24 -23 51 -41 61 -41 10 0 36 -17 59 -38 78 -72 239 -63 343
20 71 56 80 74 102 205 29 166 55 193 186 193 51 0 108 -11 127 -25z"/>
<path d="M1331 2122 c-63 -25 10 -42 176 -42 154 1 232 25 150 47 -64 17 -278
14 -326 -5z"/>
<path d="M1385 1847 c-64 -26 -12 -47 115 -47 132 0 179 21 108 48 -37 14
-187 13 -223 -1z"/>
<path d="M1240 1720 c0 -45 21 -51 56 -16 35 35 29 56 -16 56 -27 0 -40 -13
-40 -40z"/>
<path d="M1680 1744 c0 -9 11 -27 24 -40 35 -35 56 -29 56 16 0 27 -13 40 -40
40 -22 0 -40 -7 -40 -16z"/>
<path d="M873 1657 c-30 -114 -6 -390 29 -334 10 15 17 95 17 177 0 160 -24
240 -46 157z"/>
<path d="M2093 1672 c-19 -50 -16 -317 5 -349 24 -39 42 41 40 187 -1 141 -23
219 -45 162z"/>
<path d="M1152 1608 c-29 -75 -8 -248 30 -248 10 0 18 63 18 140 0 132 -21
179 -48 108z"/>
<path d="M1800 1500 c0 -132 21 -179 48 -108 16 40 16 176 0 216 -27 71 -48
24 -48 -108z"/>
<path d="M1234 1292 c-14 -35 2 -52 49 -52 43 0 47 22 13 56 -31 31 -49 30
-62 -4z"/>
<path d="M1704 1296 c-34 -34 -30 -56 13 -56 47 0 63 17 49 52 -13 34 -31 35
-62 4z"/>
<path d="M1360 1182 c0 -26 53 -42 140 -42 87 0 140 16 140 42 0 10 -63 18
-140 18 -77 0 -140 -8 -140 -18z"/>
<path d="M1323 902 c-37 -23 39 -41 177 -41 61 0 131 5 157 12 83 22 3 46
-157 46 -82 0 -162 -7 -177 -17z"/>
</g>
</svg>
