<?xml version="1.0" standalone="no"?>
<!DOCTYPE svg PUBLIC "-//W3C//DTD SVG 20010904//EN"
 "http://www.w3.org/TR/2001/REC-SVG-20010904/DTD/svg10.dtd">
<svg version="1.0" xmlns="http://www.w3.org/2000/svg"
 width="150.000000pt" height="150.000000pt" viewBox="0 0 150.000000 150.000000"
 preserveAspectRatio="xMidYMid meet">
<metadata>
Created by potrace 1.10, written by Peter Selinger 2001-2011
</metadata>
<g transform="translate(0.000000,150.000000) scale(0.050000,-0.050000)"
fill="#000000" stroke="none">
<path d="M480 2976 c0 -13 -20 -45 -45 -71 -41 -44 -46 -71 -52 -300 l-6 -253
-97 -131 c-155 -209 -167 -224 -225 -286 -60 -63 -87 -375 -32 -375 12 0 57
-31 100 -70 42 -39 90 -70 106 -70 63 0 71 -77 71 -686 0 -582 2 -609 40 -644
22 -20 40 -48 40 -63 0 -22 195 -27 1120 -27 925 0 1120 5 1120 27 0 15 18 43
40 63 38 35 40 62 40 644 0 609 8 686 71 686 16 0 64 31 106 70 43 39 88 70
100 70 55 0 28 312 -32 375 -58 62 -70 77 -225 286 l-97 131 -6 253 c-6 229
-11 256 -52 300 -25 26 -45 58 -45 71 0 18 -247 24 -1020 24 -773 0 -1020 -6
-1020 -24z m1959 -195 c34 -64 26 -282 -12 -324 -49 -54 -1791 -57 -1850 -4
-42 38 -53 260 -16 328 32 61 1846 61 1878 0z m-1618 -556 c66 -34 71 -34 104
0 81 81 215 33 215 -78 0 -35 8 -70 18 -76 21 -13 42 35 42 98 0 74 47 98 155
82 113 -18 185 -18 300 0 98 15 145 -11 145 -82 0 -63 21 -111 42 -98 10 6 18
41 18 76 0 111 134 159 215 78 33 -34 38 -34 104 0 182 92 325 44 458 -153 29
-42 67 -97 83 -121 17 -25 46 -60 65 -79 46 -46 48 -216 4 -261 -68 -67 -261
-33 -296 54 -7 17 -23 9 -50 -25 -52 -64 -311 -86 -392 -33 -44 29 -55 29
-123 1 -54 -23 -111 -28 -216 -19 -189 15 -235 15 -413 0 -115 -10 -169 -5
-226 19 -69 28 -80 28 -124 -1 -81 -53 -341 -31 -394 33 -27 33 -44 42 -50 25
-30 -86 -226 -121 -294 -54 -46 47 -41 213 9 272 74 87 160 202 160 215 1 126
282 207 441 127z m1695 -829 c25 -25 36 -1121 12 -1184 -18 -48 -538 -48 -556
0 -7 17 -12 223 -12 458 0 235 -9 450 -20 479 l-19 51 -389 0 c-391 0 -442 -9
-392 -70 17 -20 36 -23 73 -9 60 23 607 25 642 2 20 -12 25 -121 20 -474 l-5
-459 -340 3 c-187 2 -358 4 -380 5 -22 1 -178 -4 -348 -10 -245 -9 -311 -6
-324 15 -28 44 -22 1165 6 1193 35 35 1997 35 2032 0z"/>
<path d="M769 2118 c-19 -61 21 -93 50 -40 23 43 14 82 -19 82 -9 0 -23 -19
-31 -42z"/>
<path d="M2170 2140 c-6 -10 -2 -38 11 -62 29 -53 69 -21 50 40 -15 45 -41 55
-61 22z"/>
<path d="M679 1958 c-15 -28 -16 -49 -3 -62 28 -28 64 -2 64 44 0 56 -35 67
-61 18z"/>
<path d="M2269 1975 c-17 -45 4 -101 35 -90 36 12 39 43 8 86 -27 36 -30 37
-43 4z"/>
<path d="M1078 1970 c-26 -42 -38 -166 -21 -212 l19 -48 13 52 c16 61 6 237
-11 208z"/>
<path d="M1900 1876 c1 -122 27 -187 47 -113 14 56 -5 193 -30 209 -9 6 -17
-37 -17 -96z"/>
<path d="M592 1808 c-21 -54 -13 -112 13 -103 29 10 46 135 18 135 -10 0 -24
-14 -31 -32z"/>
<path d="M2364 1777 c7 -70 56 -105 56 -40 0 55 -20 103 -43 103 -11 0 -17
-29 -13 -63z"/>
</g>
</svg>
