<?xml version="1.0" standalone="no"?>
<!DOCTYPE svg PUBLIC "-//W3C//DTD SVG 20010904//EN"
 "http://www.w3.org/TR/2001/REC-SVG-20010904/DTD/svg10.dtd">
<svg version="1.0" xmlns="http://www.w3.org/2000/svg"
 width="150.000000pt" height="131.000000pt" viewBox="0 0 150.000000 131.000000"
 preserveAspectRatio="xMidYMid meet">
<metadata>
Created by potrace 1.10, written by Peter Selinger 2001-2011
</metadata>
<g transform="translate(0.000000,131.000000) scale(0.050000,-0.050000)"
fill="#000000" stroke="none">
<path d="M480 2591 c0 -16 -18 -41 -40 -57 -24 -17 -47 -66 -59 -126 -10 -54
-32 -129 -48 -168 -16 -38 -36 -115 -44 -169 -8 -55 -31 -136 -51 -180 -21
-45 -37 -106 -38 -138 0 -31 -22 -121 -48 -200 -27 -78 -54 -186 -61 -239 -9
-62 -27 -104 -52 -119 -46 -29 -62 -975 -17 -975 28 0 198 -170 198 -198 0
-16 378 -22 1280 -22 902 0 1280 6 1280 22 0 28 170 198 198 198 15 0 22 150
22 480 0 406 -4 480 -29 480 -29 0 -71 112 -71 190 0 22 -22 103 -50 180 -27
77 -50 167 -50 200 0 33 -17 96 -38 141 -20 44 -43 125 -51 180 -8 54 -28 131
-44 169 -16 39 -38 114 -48 168 -12 60 -35 109 -59 126 -22 16 -40 41 -40 57
0 25 -144 29 -1020 29 -876 0 -1020 -4 -1020 -29z m1988 -241 c21 -44 54 -147
74 -230 85 -355 101 -415 130 -500 17 -49 43 -148 57 -220 14 -71 41 -163 58
-204 27 -61 33 -150 33 -486 l0 -411 -61 -60 -60 -59 -1200 0 -1200 0 -60 61
-59 60 0 410 c0 335 6 424 33 485 17 41 44 133 58 204 14 72 40 171 57 220 17
50 45 149 62 220 18 72 49 198 69 280 36 149 83 276 113 305 8 9 430 13 936
10 l922 -5 38 -80z"/>
<path d="M732 2195 c-46 -42 -64 -112 -55 -220 6 -73 41 -31 57 70 l16 105
750 0 750 0 16 -105 c26 -162 66 -137 56 35 -9 160 -9 160 -822 160 -716 0
-718 0 -768 -45z"/>
<path d="M593 1835 c-19 -69 -15 -255 5 -255 25 0 41 74 42 184 0 101 -28 143
-47 71z"/>
<path d="M2374 1868 c-17 -18 -18 -180 -1 -243 22 -84 47 -46 46 70 -2 122
-21 196 -45 173z"/>
<path d="M493 1478 c-7 -35 -13 -101 -13 -148 0 -61 -11 -93 -39 -113 -44 -31
-73 -190 -43 -236 14 -21 81 -32 256 -40 262 -12 276 -17 295 -96 18 -73 125
-238 164 -253 40 -16 734 -16 774 0 39 15 146 180 164 253 19 79 33 84 295 96
175 8 242 19 256 40 28 43 1 204 -41 239 -26 22 -39 68 -46 166 -11 146 -19
166 -56 143 -48 -29 1 -309 54 -309 51 0 -6 -74 -76 -98 -34 -12 -128 -22
-208 -22 -198 0 -296 -72 -341 -251 -24 -95 -72 -109 -388 -109 -316 0 -364
14 -388 109 -45 180 -143 251 -344 251 -162 0 -288 39 -288 89 0 17 8 31 19
31 23 0 67 195 58 258 -10 73 -50 73 -64 0z"/>
</g>
</svg>
