<?xml version="1.0" standalone="no"?>
<!DOCTYPE svg PUBLIC "-//W3C//DTD SVG 20010904//EN"
 "http://www.w3.org/TR/2001/REC-SVG-20010904/DTD/svg10.dtd">
<svg version="1.0" xmlns="http://www.w3.org/2000/svg"
 width="200.000000pt" height="194.000000pt" viewBox="0 0 200.000000 194.000000"
 preserveAspectRatio="xMidYMid meet">
<metadata>
Created by potrace 1.10, written by Peter Selinger 2001-2011
</metadata>
<g transform="translate(0.000000,194.000000) scale(0.050000,-0.050000)"
fill="#000000" stroke="none">
<path d="M1860 3848 c0 -18 -25 -63 -55 -99 -83 -100 -141 -201 -164 -285 -11
-41 -42 -105 -70 -142 -27 -37 -55 -94 -62 -127 -7 -33 -39 -102 -71 -152 -32
-50 -58 -103 -58 -119 0 -100 -118 -173 -310 -193 -66 -7 -192 -30 -280 -50
-88 -21 -259 -48 -379 -60 -206 -20 -223 -25 -274 -81 -30 -33 -73 -60 -96
-60 -37 0 -41 -12 -41 -140 0 -111 6 -140 30 -140 36 0 731 -695 789 -789 51
-81 51 -113 2 -307 -22 -84 -49 -248 -61 -364 -12 -115 -35 -257 -51 -315 -34
-119 -24 -184 44 -285 26 -38 47 -85 47 -105 0 -59 283 -52 310 8 21 46 37 58
150 109 39 18 133 67 210 109 77 42 176 94 220 115 44 21 115 62 158 91 102
70 202 70 304 0 43 -29 114 -70 158 -91 44 -21 143 -73 220 -115 77 -42 172
-91 210 -109 113 -51 129 -63 150 -109 27 -60 310 -67 310 -8 0 20 21 67 47
105 68 101 78 166 44 285 -16 58 -39 200 -51 315 -12 116 -39 280 -61 364 -48
191 -49 230 -2 306 56 91 757 790 792 790 25 0 31 28 31 140 0 128 -4 140 -41
140 -23 0 -66 27 -96 60 -51 56 -68 61 -274 81 -120 12 -291 39 -379 60 -88
20 -214 43 -280 50 -192 20 -310 93 -310 193 0 16 -26 69 -58 119 -32 50 -64
119 -71 152 -7 33 -35 90 -62 127 -28 37 -59 101 -70 142 -23 84 -81 185 -164
285 -30 36 -55 81 -55 99 0 26 -24 32 -140 32 -116 0 -140 -6 -140 -32z m247
-403 c16 -30 34 -84 42 -119 7 -35 26 -74 41 -86 15 -13 44 -65 63 -117 20
-51 56 -124 81 -161 25 -37 46 -83 46 -101 0 -19 38 -94 85 -167 97 -152 120
-164 378 -192 95 -11 225 -33 290 -50 64 -17 197 -40 296 -51 307 -35 304 -60
-50 -412 -144 -142 -311 -317 -373 -388 l-111 -129 10 -191 c6 -105 26 -231
44 -281 54 -144 87 -593 46 -633 -42 -43 -154 -22 -233 44 -32 27 -97 63 -145
80 -47 17 -104 47 -126 67 -23 20 -72 47 -110 59 -37 13 -83 37 -101 53 -123
112 -437 112 -560 0 -18 -16 -64 -40 -101 -53 -38 -12 -87 -39 -110 -59 -22
-20 -79 -50 -126 -67 -48 -17 -113 -53 -145 -80 -79 -66 -191 -87 -233 -44
-41 40 -8 487 45 633 37 99 63 386 43 467 -8 28 -176 218 -383 430 -453 465
-454 468 -137 504 97 11 230 34 294 51 65 17 195 39 290 50 258 28 281 40 378
192 47 73 85 148 85 167 0 18 21 65 48 103 26 39 58 103 71 142 13 39 39 92
59 118 20 25 48 82 62 126 44 138 55 150 140 150 66 0 84 -9 107 -55z"/>
</g>
</svg>
