<?xml version="1.0" standalone="no"?>
<!DOCTYPE svg PUBLIC "-//W3C//DTD SVG 20010904//EN"
 "http://www.w3.org/TR/2001/REC-SVG-20010904/DTD/svg10.dtd">
<svg version="1.0" xmlns="http://www.w3.org/2000/svg"
 width="150.000000pt" height="131.000000pt" viewBox="0 0 150.000000 131.000000"
 preserveAspectRatio="xMidYMid meet">
<metadata>
Created by potrace 1.10, written by Peter Selinger 2001-2011
</metadata>
<g transform="translate(0.000000,131.000000) scale(0.050000,-0.050000)"
fill="#000000" stroke="none">
<path d="M1300 2592 c0 -28 -138 -72 -229 -72 -29 0 -101 -17 -162 -39 -60
-21 -161 -44 -224 -52 -63 -8 -145 -26 -182 -41 -37 -15 -125 -38 -196 -50
-208 -36 -304 -128 -306 -293 -1 -92 6 -125 26 -125 15 0 44 -19 65 -42 52
-58 135 -98 202 -98 173 -1 173 -2 186 -520 10 -413 12 -432 57 -493 293 -390
1633 -390 1926 0 45 61 47 80 57 493 13 518 13 519 186 520 67 0 150 40 202
98 21 23 50 42 65 42 20 0 27 33 26 125 -2 156 -104 263 -274 285 -52 7 -144
29 -205 50 -60 21 -155 43 -210 50 -55 7 -152 30 -215 51 -63 22 -138 39 -166
39 -91 0 -229 44 -229 72 0 22 -43 28 -200 28 -157 0 -200 -6 -200 -28z m440
-199 c39 -16 136 -39 217 -51 81 -13 163 -31 182 -42 20 -10 97 -28 173 -40
76 -12 192 -39 258 -60 66 -20 145 -43 176 -49 52 -11 56 -19 50 -94 l-6 -82
-140 -37 c-77 -21 -189 -48 -250 -59 -60 -12 -168 -39 -240 -59 -71 -20 -175
-43 -230 -50 -55 -7 -151 -31 -214 -52 -145 -48 -286 -48 -432 0 -63 21 -178
48 -256 60 -78 12 -174 35 -214 52 -40 16 -99 30 -131 30 -32 0 -116 17 -186
37 -70 21 -165 48 -212 61 -110 31 -132 171 -30 193 30 6 109 29 175 49 66 21
179 48 250 59 72 12 166 34 210 50 44 16 103 30 131 30 45 1 149 27 329 81 81
25 304 9 390 -27z m-858 -750 c59 -20 158 -43 220 -50 62 -7 145 -26 185 -43
92 -39 333 -39 425 -1 39 17 117 35 174 42 57 6 155 30 217 52 243 87 264 51
254 -429 l-7 -318 -76 -64 c-284 -238 -1182 -248 -1536 -16 -93 61 -105 128
-95 536 9 361 14 368 239 291z"/>
<path d="M2746 1635 c-23 -35 -33 -794 -11 -877 22 -88 131 -112 152 -34 16
59 16 832 0 891 -13 51 -112 65 -141 20z"/>
<path d="M2700 411 c-71 -154 -79 -268 -20 -321 22 -20 40 -48 40 -63 0 -19
28 -27 90 -27 67 0 90 8 90 30 0 17 23 41 50 54 58 26 79 276 24 276 -14 0
-46 41 -70 90 -67 139 -126 128 -204 -39z"/>
</g>
</svg>
