<?xml version="1.0" standalone="no"?>
<!DOCTYPE svg PUBLIC "-//W3C//DTD SVG 20010904//EN"
 "http://www.w3.org/TR/2001/REC-SVG-20010904/DTD/svg10.dtd">
<svg version="1.0" xmlns="http://www.w3.org/2000/svg"
 width="150.000000pt" height="131.000000pt" viewBox="0 0 150.000000 131.000000"
 preserveAspectRatio="xMidYMid meet">
<metadata>
Created by potrace 1.10, written by Peter Selinger 2001-2011
</metadata>
<g transform="translate(0.000000,131.000000) scale(0.050000,-0.050000)"
fill="#000000" stroke="none">
<path d="M560 2592 c0 -15 -22 -42 -50 -60 -74 -49 -373 -291 -426 -345 -25
-26 -54 -47 -65 -47 -10 0 -19 -49 -19 -110 0 -79 8 -110 27 -110 31 0 73 -83
73 -146 0 -25 17 -76 37 -114 21 -39 44 -101 52 -140 22 -100 122 -200 203
-200 89 0 88 5 88 -619 0 -525 2 -558 40 -606 22 -28 40 -61 40 -73 0 -16 274
-22 940 -22 822 0 940 4 940 30 0 17 18 48 40 70 38 38 40 67 40 598 0 627 -1
622 88 622 81 0 181 100 203 200 8 39 31 101 52 140 20 38 37 89 37 113 0 70
36 147 70 147 23 0 30 26 30 120 0 107 -4 120 -40 120 -22 0 -40 7 -40 16 0
15 -272 241 -415 344 -36 26 -65 59 -65 74 0 21 -178 26 -940 26 -788 0 -940
-4 -940 -28z m535 -182 c54 -12 65 -24 65 -70 0 -43 12 -59 52 -69 52 -13 100
7 56 22 -207 75 -102 137 232 137 334 0 439 -62 232 -137 -50 -18 10 -36 62
-18 45 15 55 29 50 69 -8 63 40 76 318 90 l192 9 205 -165 c271 -219 279 -231
225 -364 -23 -57 -52 -144 -64 -194 -13 -49 -48 -121 -80 -160 l-57 -70 -46
41 c-185 164 -177 190 -177 -629 0 -497 -6 -680 -24 -698 -34 -34 -1638 -34
-1672 0 -18 18 -24 202 -24 705 -1 677 -8 764 -59 702 -14 -17 -35 -31 -47
-31 -12 0 -43 -20 -69 -45 l-48 -45 -57 70 c-32 39 -67 111 -80 160 -12 50
-41 137 -64 194 -54 133 -46 145 225 364 l205 165 192 -9 c105 -5 221 -16 257
-24z"/>
<path d="M1360 2221 c-48 -15 -48 -16 -10 -33 52 -23 248 -23 300 0 54 24 -21
48 -150 48 -49 0 -112 -7 -140 -15z"/>
</g>
</svg>
