<?xml version="1.0" standalone="no"?>
<!DOCTYPE svg PUBLIC "-//W3C//DTD SVG 20010904//EN"
 "http://www.w3.org/TR/2001/REC-SVG-20010904/DTD/svg10.dtd">
<svg version="1.0" xmlns="http://www.w3.org/2000/svg"
 width="150.000000pt" height="113.000000pt" viewBox="0 0 150.000000 113.000000"
 preserveAspectRatio="xMidYMid meet">
<metadata>
Created by potrace 1.10, written by Peter Selinger 2001-2011
</metadata>
<g transform="translate(0.000000,113.000000) scale(0.050000,-0.050000)"
fill="#000000" stroke="none">
<path d="M220 2238 c0 -28 -170 -198 -198 -198 -16 0 -22 -272 -22 -910 0
-638 6 -910 22 -910 28 0 198 -170 198 -198 0 -16 309 -22 1040 -22 903 0
1040 4 1040 29 0 17 25 43 56 59 54 28 92 77 217 277 29 47 70 110 91 140 20
30 45 77 56 105 10 27 28 50 38 50 11 0 25 20 33 45 7 25 33 72 57 105 24 33
54 85 67 115 13 30 38 55 55 55 24 0 30 29 30 150 0 121 -6 150 -30 150 -17 0
-42 25 -55 55 -13 30 -43 82 -67 115 -24 33 -50 80 -57 105 -8 25 -22 45 -33
45 -10 0 -28 23 -38 50 -11 28 -36 75 -56 105 -21 30 -60 91 -87 135 -122 196
-168 255 -221 282 -31 16 -56 42 -56 59 0 25 -137 29 -1040 29 -731 0 -1040
-6 -1040 -22z m2072 -223 c33 -36 83 -101 111 -145 28 -44 93 -145 144 -224
51 -80 93 -153 93 -162 0 -10 18 -34 40 -54 22 -20 40 -47 40 -59 0 -13 23
-54 50 -91 68 -92 68 -208 0 -300 -28 -37 -50 -78 -50 -91 0 -12 -18 -39 -40
-59 -22 -20 -40 -44 -40 -54 0 -9 -42 -82 -93 -162 -51 -79 -116 -180 -144
-224 -28 -44 -78 -109 -111 -145 l-60 -65 -965 0 -966 0 -60 59 -61 60 0 829
0 830 65 61 65 61 961 0 961 0 60 -65z"/>
<path d="M2049 1371 c-36 -27 -27 -30 96 -30 133 -1 178 23 90 46 -76 21 -145
14 -186 -16z"/>
<path d="M1909 1236 c-18 -48 -1 -227 21 -221 27 6 37 206 12 231 -14 14 -24
11 -33 -10z"/>
<path d="M2360 1130 c0 -106 23 -144 48 -78 26 67 7 188 -30 188 -10 0 -18
-49 -18 -110z"/>
<path d="M2040 900 c0 -29 91 -46 170 -31 111 21 81 51 -50 51 -66 0 -120 -9
-120 -20z"/>
</g>
</svg>
