<?xml version="1.0" standalone="no"?>
<!DOCTYPE svg PUBLIC "-//W3C//DTD SVG 20010904//EN"
 "http://www.w3.org/TR/2001/REC-SVG-20010904/DTD/svg10.dtd">
<svg version="1.0" xmlns="http://www.w3.org/2000/svg"
 width="150.000000pt" height="171.000000pt" viewBox="0 0 150.000000 171.000000"
 preserveAspectRatio="xMidYMid meet">
<metadata>
Created by potrace 1.10, written by Peter Selinger 2001-2011
</metadata>
<g transform="translate(0.000000,171.000000) scale(0.050000,-0.050000)"
fill="#000000" stroke="none">
<path d="M820 3393 c0 -14 -23 -48 -52 -75 -66 -62 -108 -142 -108 -208 0
-115 -25 -130 -222 -130 -193 0 -254 -19 -336 -108 -27 -29 -61 -52 -75 -52
-21 0 -27 -52 -27 -230 0 -149 7 -230 21 -230 12 0 61 -33 109 -73 l88 -74 6
-941 6 -942 56 -94 c31 -51 87 -112 125 -134 38 -22 69 -54 69 -71 0 -27 117
-31 1020 -31 903 0 1020 4 1020 31 0 17 31 49 69 71 38 22 94 83 125 134 l56
94 10 944 10 944 83 71 c46 39 93 71 105 71 15 0 22 77 22 230 0 178 -6 230
-27 230 -14 0 -48 24 -75 53 -74 81 -159 107 -347 107 -187 0 -211 15 -211
137 0 39 -25 91 -70 146 -39 48 -76 103 -83 122 -16 47 -1367 55 -1367 8z
m1280 -193 c47 -25 69 -125 41 -179 -35 -64 -1247 -64 -1282 0 -27 52 -6 153
38 178 45 27 1154 27 1203 1z m672 -449 c45 -62 38 -264 -11 -290 -53 -29
-2469 -29 -2522 0 -91 48 -42 307 61 325 189 34 2444 2 2472 -35z m-216 -515
c18 -18 24 -258 24 -958 l0 -933 -80 -73 -80 -72 -920 0 -920 0 -80 72 -80 73
0 933 c0 700 6 940 24 958 35 35 2077 35 2112 0z"/>
<path d="M740 2007 c-78 -31 -80 -54 -80 -786 0 -413 9 -724 20 -741 25 -39
305 -43 344 -4 35 35 38 1470 3 1505 -25 25 -240 45 -287 26z m216 -91 c34
-34 34 -1338 0 -1372 -31 -31 -161 -31 -192 0 -34 34 -34 1338 0 1372 31 31
161 31 192 0z"/>
<path d="M1384 2007 c-26 -6 -55 -33 -66 -62 -24 -63 -16 -1454 9 -1478 21
-22 325 -22 346 0 29 28 21 1487 -7 1515 -26 26 -204 41 -282 25z m212 -91
c34 -34 34 -1338 0 -1372 -31 -31 -161 -31 -192 0 -34 34 -34 1338 0 1372 31
31 161 31 192 0z"/>
<path d="M2024 2007 c-26 -6 -55 -33 -66 -62 -31 -82 -15 -1436 18 -1469 39
-39 319 -35 344 4 33 51 26 1445 -7 1489 -28 38 -189 59 -289 38z m212 -91
c34 -34 34 -1338 0 -1372 -31 -31 -161 -31 -192 0 -34 34 -34 1338 0 1372 31
31 161 31 192 0z"/>
</g>
</svg>
