<?xml version="1.0" standalone="no"?>
<!DOCTYPE svg PUBLIC "-//W3C//DTD SVG 20010904//EN"
 "http://www.w3.org/TR/2001/REC-SVG-20010904/DTD/svg10.dtd">
<svg version="1.0" xmlns="http://www.w3.org/2000/svg"
 width="150.000000pt" height="122.000000pt" viewBox="0 0 150.000000 122.000000"
 preserveAspectRatio="xMidYMid meet">
<metadata>
Created by potrace 1.10, written by Peter Selinger 2001-2011
</metadata>
<g transform="translate(0.000000,122.000000) scale(0.050000,-0.050000)"
fill="#000000" stroke="none">
<path d="M140 2413 c0 -32 -83 -113 -116 -113 -18 0 -24 -162 -24 -649 l0
-650 45 -23 c25 -12 68 -43 95 -68 28 -25 70 -52 95 -59 36 -11 45 -29 47 -87
1 -41 4 -92 6 -114 3 -22 6 -74 8 -115 6 -117 106 -215 243 -237 109 -17 190
-71 212 -141 7 -21 38 -51 70 -68 33 -16 59 -43 59 -60 0 -23 30 -29 138 -29
147 0 228 53 348 228 35 51 40 52 275 52 l240 0 62 -88 c34 -48 83 -99 109
-113 27 -14 48 -38 48 -52 0 -20 38 -27 150 -27 112 0 150 7 150 27 0 14 21
38 48 52 26 14 75 64 109 112 55 79 71 89 164 101 77 10 125 32 190 86 l86 72
2 405 c1 345 -3 405 -29 405 -16 0 -47 34 -69 75 -22 41 -67 111 -100 155 -33
44 -74 107 -93 139 -18 32 -46 71 -61 86 -15 16 -27 36 -27 46 0 26 -121 149
-174 176 -24 13 -133 23 -242 23 -233 0 -236 2 -248 175 -7 108 -18 135 -72
191 -35 36 -64 77 -64 90 0 18 -199 24 -840 24 -684 0 -840 -5 -840 -27z
m1607 -178 c31 -23 33 -77 28 -604 l-5 -579 -50 -14 c-96 -27 -1425 -20 -1480
8 l-50 25 -5 563 c-5 492 -2 567 26 594 42 43 1478 49 1536 7z m592 -448 c67
-13 106 -58 262 -297 43 -66 110 -165 148 -220 l70 -100 1 -313 c0 -365 -2
-372 -94 -389 -66 -12 -77 -6 -187 109 -214 226 -363 226 -576 3 l-114 -120
-212 0 -213 0 -60 68 c-32 37 -63 76 -67 85 -15 36 -143 110 -207 121 -135 22
-204 -8 -337 -145 -192 -197 -293 -166 -293 90 0 190 -34 181 697 181 l620 0
62 52 c112 94 121 133 121 506 0 303 4 342 35 360 39 23 247 29 344 9z m-1173
-1283 c111 -115 26 -324 -132 -324 -88 0 -194 105 -194 192 0 169 209 254 326
132z m1220 0 c76 -79 73 -174 -7 -259 -84 -90 -174 -90 -258 0 -122 130 -47
315 129 315 64 0 94 -12 136 -56z"/>
<path d="M2097 1647 c-38 -46 -39 -633 -1 -671 35 -35 451 -37 486 -2 51 51
47 219 -6 270 -28 25 -56 71 -63 101 -8 31 -27 55 -46 55 -43 0 -19 -100 34
-137 45 -32 55 -179 15 -219 -43 -43 -331 -31 -355 15 -30 55 -27 487 3 517
33 33 95 30 108 -4 6 -15 28 -33 49 -38 26 -7 39 -28 39 -61 0 -57 33 -88 64
-57 24 24 -13 102 -67 140 -20 15 -37 43 -37 63 0 66 -173 88 -223 28z"/>
</g>
</svg>
