<?xml version="1.0" standalone="no"?>
<!DOCTYPE svg PUBLIC "-//W3C//DTD SVG 20010904//EN"
 "http://www.w3.org/TR/2001/REC-SVG-20010904/DTD/svg10.dtd">
<svg version="1.0" xmlns="http://www.w3.org/2000/svg"
 width="150.000000pt" height="117.000000pt" viewBox="0 0 150.000000 117.000000"
 preserveAspectRatio="xMidYMid meet">
<metadata>
Created by potrace 1.10, written by Peter Selinger 2001-2011
</metadata>
<g transform="translate(0.000000,117.000000) scale(0.050000,-0.050000)"
fill="#000000" stroke="none">
<path d="M690 2311 c-14 -20 -88 -36 -230 -51 -320 -33 -331 -43 -372 -319
-16 -108 -36 -178 -56 -192 -46 -34 -48 -1023 -2 -1057 30 -23 70 -191 70
-298 0 -111 83 -189 215 -203 441 -48 685 -109 685 -171 0 -13 176 -20 500
-20 324 0 500 7 500 20 0 62 245 123 682 170 148 16 195 76 220 277 26 209 38
253 70 253 23 0 28 80 28 490 0 321 -7 490 -20 490 -32 0 -58 88 -78 263 -24
217 -70 267 -259 286 -310 29 -343 35 -343 63 0 43 -1581 41 -1610 -1z m1620
-171 c298 -34 390 -58 409 -107 138 -354 134 -1345 -6 -1633 -75 -155 -2291
-177 -2418 -24 -150 181 -155 1441 -6 1682 52 84 1483 142 2021 82z"/>
<path d="M825 1940 c-245 -36 -39 -55 515 -50 575 6 572 6 547 31 -24 24 -918
39 -1062 19z"/>
<path d="M487 1830 c-6 -17 -5 -54 2 -83 l13 -54 40 65 c21 35 34 73 27 83
-18 29 -69 22 -82 -11z"/>
<path d="M2055 1846 c-5 -9 7 -52 27 -96 39 -87 67 -65 54 43 -6 54 -61 89
-81 53z"/>
<path d="M2409 1811 c-108 -108 21 -262 141 -168 65 52 64 123 -3 176 -67 52
-78 52 -138 -8z m116 -56 c13 -37 -5 -75 -36 -75 -35 0 -55 35 -41 71 13 36
65 38 77 4z"/>
<path d="M409 1530 c-23 -78 -23 -522 0 -600 l17 -60 15 60 c19 78 19 522 0
600 l-15 60 -17 -60z"/>
<path d="M865 1567 c-135 -55 168 -81 375 -33 l50 12 -50 15 c-56 17 -337 21
-375 6z"/>
<path d="M2170 1388 c-25 -301 26 -643 57 -383 24 201 7 555 -27 555 -9 0 -22
-77 -30 -172z"/>
<path d="M792 1472 c-23 -46 -27 -203 -7 -224 29 -28 37 8 31 135 -5 92 -11
117 -24 89z"/>
<path d="M2370 1181 c-7 -12 0 -26 16 -32 47 -18 304 0 304 21 0 27 -303 38
-320 11z"/>
<path d="M2370 901 c-7 -12 0 -26 16 -32 47 -18 304 0 304 21 0 27 -303 38
-320 11z"/>
<path d="M2090 722 c-10 -48 -31 -73 -77 -92 -73 -31 -38 -58 60 -46 48 5 58
16 63 71 10 97 -27 151 -46 67z"/>
<path d="M491 717 c-25 -92 -7 -126 67 -133 84 -9 126 26 53 44 -32 8 -61 37
-79 77 l-27 65 -14 -53z"/>
<path d="M2280 610 c0 -27 24 -31 155 -26 86 3 155 15 155 26 0 11 -69 23
-155 26 -131 5 -155 1 -155 -26z"/>
<path d="M860 523 c0 -39 583 -61 807 -30 209 28 67 47 -357 47 -247 0 -450
-8 -450 -17z"/>
</g>
</svg>
