<?xml version="1.0" standalone="no"?>
<!DOCTYPE svg PUBLIC "-//W3C//DTD SVG 20010904//EN"
 "http://www.w3.org/TR/2001/REC-SVG-20010904/DTD/svg10.dtd">
<svg version="1.0" xmlns="http://www.w3.org/2000/svg"
 width="150.000000pt" height="150.000000pt" viewBox="0 0 150.000000 150.000000"
 preserveAspectRatio="xMidYMid meet">
<metadata>
Created by potrace 1.10, written by Peter Selinger 2001-2011
</metadata>
<g transform="translate(0.000000,150.000000) scale(0.050000,-0.050000)"
fill="#000000" stroke="none">
<path d="M1260 2972 c0 -17 -43 -43 -102 -63 -125 -41 -337 -239 -397 -371
-22 -48 -49 -101 -60 -118 -98 -152 -156 -770 -90 -950 17 -44 39 -124 50
-179 10 -54 32 -112 47 -130 15 -17 38 -67 52 -111 14 -44 32 -84 39 -90 33
-25 143 -247 134 -270 -6 -15 -59 -37 -119 -49 -60 -13 -126 -36 -146 -51 -21
-16 -55 -29 -76 -29 -68 -1 -428 -176 -503 -244 -23 -20 -52 -37 -65 -37 -46
0 -30 -174 17 -186 23 -6 47 -30 53 -53 17 -65 2795 -65 2812 0 6 23 30 47 53
53 49 13 63 186 14 186 -15 0 -41 16 -59 35 -17 20 -93 66 -168 102 -75 37
-153 76 -174 87 -56 30 -246 96 -379 131 -64 17 -121 43 -126 56 -9 22 102
245 134 269 7 6 25 46 39 90 14 43 43 106 63 140 20 33 37 78 37 101 0 22 18
92 40 154 45 129 55 483 18 625 -12 44 -35 139 -52 210 -17 72 -43 144 -57
160 -14 17 -39 65 -57 107 -49 119 -267 321 -390 362 -59 20 -102 46 -102 63
0 23 -46 28 -240 28 -194 0 -240 -5 -240 -28z m510 -204 c234 -122 381 -340
473 -698 30 -119 12 -566 -26 -640 -18 -33 -37 -92 -45 -132 -11 -61 -89 -231
-181 -394 -45 -80 -224 -259 -277 -276 -72 -23 -18 -58 108 -71 70 -8 172 -28
226 -45 54 -18 117 -32 140 -33 23 0 87 -22 142 -49 55 -27 111 -50 124 -50
13 0 66 -22 118 -50 52 -27 106 -50 122 -50 39 0 57 -61 24 -82 -53 -33 -2409
-22 -2437 11 -33 39 -13 65 59 81 33 7 72 25 85 38 26 26 219 98 365 136 44
11 125 35 180 52 55 17 153 37 218 43 118 11 168 47 98 69 -53 17 -232 196
-277 276 -92 163 -170 333 -181 394 -8 40 -27 99 -45 132 -38 74 -56 521 -26
640 129 503 374 750 743 750 145 0 185 -8 270 -52z"/>
<path d="M1349 539 c-23 -38 11 -49 151 -49 140 0 174 11 151 49 -17 27 -285
27 -302 0z"/>
</g>
</svg>
