<?xml version="1.0" standalone="no"?>
<!DOCTYPE svg PUBLIC "-//W3C//DTD SVG 20010904//EN"
 "http://www.w3.org/TR/2001/REC-SVG-20010904/DTD/svg10.dtd">
<svg version="1.0" xmlns="http://www.w3.org/2000/svg"
 width="150.000000pt" height="103.000000pt" viewBox="0 0 150.000000 103.000000"
 preserveAspectRatio="xMidYMid meet">
<metadata>
Created by potrace 1.10, written by Peter Selinger 2001-2011
</metadata>
<g transform="translate(0.000000,103.000000) scale(0.050000,-0.050000)"
fill="#000000" stroke="none">
<path d="M160 2036 c0 -33 -101 -136 -134 -136 -21 0 -26 -165 -26 -870 0
-661 6 -870 24 -870 33 0 136 -101 136 -134 0 -21 190 -26 1010 -26 620 0
1010 7 1010 19 0 10 31 53 70 95 39 42 75 107 83 146 24 135 42 134 189 -12
166 -164 285 -195 387 -100 31 29 65 52 74 52 9 0 17 374 17 830 0 676 -5 830
-27 830 -14 0 -48 23 -75 52 -88 95 -208 63 -372 -98 -147 -144 -172 -146
-193 -19 -8 46 -40 105 -83 151 -38 42 -70 85 -70 95 0 12 -390 19 -1010 19
-770 0 -1010 -6 -1010 -24z m1976 -180 c34 -34 34 -1618 0 -1652 -35 -35
-1897 -35 -1932 0 -34 34 -34 1618 0 1652 35 35 1897 35 1932 0z m674 -826 l0
-740 -57 -6 c-49 -6 -87 24 -280 214 l-223 221 0 311 0 311 223 221 c193 190
231 220 280 214 l57 -6 0 -740z"/>
</g>
</svg>
