<?xml version="1.0" standalone="no"?>
<!DOCTYPE svg PUBLIC "-//W3C//DTD SVG 20010904//EN"
 "http://www.w3.org/TR/2001/REC-SVG-20010904/DTD/svg10.dtd">
<svg version="1.0" xmlns="http://www.w3.org/2000/svg"
 width="150.000000pt" height="150.000000pt" viewBox="0 0 150.000000 150.000000"
 preserveAspectRatio="xMidYMid meet">
<metadata>
Created by potrace 1.10, written by Peter Selinger 2001-2011
</metadata>
<g transform="translate(0.000000,150.000000) scale(0.050000,-0.050000)"
fill="#000000" stroke="none">
<path d="M1160 2971 c0 -25 -106 -70 -170 -71 -27 -1 -243 -116 -344 -183
-104 -70 -296 -262 -357 -358 -26 -42 -56 -81 -67 -88 -10 -6 -25 -38 -32 -70
-7 -32 -25 -68 -40 -81 -14 -12 -37 -69 -51 -126 -30 -127 -55 -179 -80 -163
-12 7 -19 -119 -19 -330 0 -286 5 -341 29 -341 18 0 38 -33 51 -85 18 -75 98
-265 136 -327 105 -169 357 -448 405 -448 9 0 41 -21 72 -47 32 -26 80 -54
107 -63 28 -8 64 -26 80 -41 17 -14 83 -39 149 -56 65 -17 126 -45 136 -62 25
-45 675 -47 675 -2 0 25 106 70 170 71 80 2 396 209 539 351 142 143 349 459
351 539 1 64 46 170 71 170 24 0 29 55 29 330 0 269 -5 330 -28 330 -18 0 -40
50 -62 139 -19 77 -47 150 -62 163 -15 12 -28 34 -28 46 0 76 -378 532 -441
532 -9 0 -41 21 -72 47 -32 26 -79 54 -107 63 -27 8 -63 26 -80 40 -30 26 -45
31 -195 70 -51 13 -85 33 -85 51 0 24 -55 29 -340 29 -284 0 -340 -5 -340 -29z
m590 -171 c180 -40 428 -150 537 -239 268 -219 425 -465 514 -801 23 -90 23
-430 0 -520 -77 -294 -174 -468 -363 -658 -179 -178 -292 -252 -498 -325 -185
-66 -243 -76 -440 -76 -104 0 -221 8 -260 18 -546 144 -897 495 -1041 1041
-23 90 -23 430 0 520 79 301 173 467 374 667 204 203 357 289 657 372 81 23
421 24 520 1z"/>
<path d="M1025 2505 c-66 -11 -55 -45 15 -45 33 0 60 8 60 19 0 26 -23 34 -75
26z"/>
<path d="M847 2399 c-21 -21 -71 -70 -112 -110 -80 -77 -99 -136 -40 -125 19
3 38 27 41 51 5 30 21 45 47 45 23 0 45 16 50 36 5 20 36 46 68 58 68 26 76
57 21 71 -22 6 -54 -5 -75 -26z"/>
<path d="M1033 2307 c-25 -25 -13 -47 25 -47 57 0 103 22 91 42 -13 21 -96 24
-116 5z"/>
<path d="M950 2235 c-69 -39 -190 -177 -190 -217 0 -56 57 -47 72 12 7 28 26
50 42 50 16 0 34 17 40 38 5 21 31 44 58 51 26 6 48 25 48 40 0 42 -25 51 -70
26z"/>
<path d="M581 2131 c-18 -22 -18 -39 -1 -72 24 -44 53 -34 61 21 11 82 -16
104 -60 51z"/>
<path d="M1080 2090 c-12 -31 -35 -50 -60 -50 -24 0 -48 -19 -59 -45 -9 -25
-36 -61 -59 -80 -44 -36 -56 -104 -22 -125 11 -7 29 11 40 39 25 66 185 226
251 251 61 24 47 60 -23 60 -34 0 -55 -15 -68 -50z"/>
<path d="M1390 2042 c-520 -135 -598 -792 -124 -1036 449 -230 958 279 728
728 -118 229 -385 365 -604 308z m298 -216 c191 -125 249 -343 137 -516 -165
-255 -484 -254 -651 2 -206 317 197 720 514 514z"/>
<path d="M1385 1613 c-103 -106 -29 -293 115 -293 63 0 180 117 180 180 0 63
-117 180 -180 180 -30 0 -75 -27 -115 -67z m215 -113 l0 -100 -100 0 -100 0 0
100 0 100 100 0 100 0 0 -100z"/>
<path d="M492 1969 c-17 -66 2 -99 40 -68 36 31 37 119 0 119 -15 0 -33 -23
-40 -51z"/>
<path d="M684 1955 c-22 -27 -9 -135 16 -135 21 0 40 53 40 112 0 52 -23 62
-56 23z"/>
<path d="M2081 1173 c-25 -67 -201 -247 -250 -256 -58 -10 -49 -46 14 -53 43
-5 59 4 74 43 11 29 38 53 65 56 30 5 48 23 53 53 3 27 26 54 55 65 33 12 48
34 48 67 0 69 -36 84 -59 25z"/>
<path d="M2272 1148 c-18 -47 -15 -128 6 -128 35 0 58 51 48 105 -12 61 -35
71 -54 23z"/>
<path d="M2464 1096 c-33 -33 -30 -116 4 -116 32 0 62 98 37 123 -9 9 -28 6
-41 -7z"/>
<path d="M2169 972 c-7 -27 -30 -53 -51 -58 -21 -6 -38 -24 -38 -40 0 -16 -22
-35 -50 -42 -32 -8 -50 -27 -50 -52 0 -28 -14 -40 -45 -40 -79 -1 -112 -35
-55 -57 41 -16 58 -11 96 29 25 26 54 48 64 48 48 0 232 221 206 247 -28 28
-66 10 -77 -35z"/>
<path d="M2363 929 c-30 -67 -2 -110 46 -70 38 31 38 43 5 89 -24 33 -28 32
-51 -19z"/>
<path d="M2273 827 c-7 -8 -13 -30 -13 -50 0 -23 -15 -37 -39 -37 -48 0 -73
-36 -44 -65 24 -24 162 95 163 140 0 26 -44 34 -67 12z"/>
<path d="M2074 637 c-45 -25 -43 -50 4 -62 36 -10 82 16 82 47 0 25 -52 34
-86 15z"/>
<path d="M1904 519 c4 -12 14 -21 22 -20 7 0 32 1 54 1 22 0 40 9 40 20 0 11
-28 20 -62 20 -35 0 -58 -9 -54 -21z"/>
</g>
</svg>
