<?xml version="1.0" standalone="no"?>
<!DOCTYPE svg PUBLIC "-//W3C//DTD SVG 20010904//EN"
 "http://www.w3.org/TR/2001/REC-SVG-20010904/DTD/svg10.dtd">
<svg version="1.0" xmlns="http://www.w3.org/2000/svg"
 width="150.000000pt" height="145.000000pt" viewBox="0 0 150.000000 145.000000"
 preserveAspectRatio="xMidYMid meet">
<metadata>
Created by potrace 1.10, written by Peter Selinger 2001-2011
</metadata>
<g transform="translate(0.000000,145.000000) scale(0.050000,-0.050000)"
fill="#000000" stroke="none">
<path d="M340 2869 c0 -17 -29 -43 -65 -58 -72 -31 -152 -111 -194 -196 -15
-30 -40 -55 -54 -55 -22 0 -27 -199 -27 -1110 0 -933 4 -1110 28 -1110 15 0
41 -29 58 -65 35 -73 117 -154 199 -194 30 -15 55 -40 55 -54 0 -22 184 -27
1020 -27 908 0 1020 3 1020 31 0 17 29 43 65 58 140 59 235 217 255 425 12
134 20 151 107 253 51 60 93 124 93 142 0 18 23 55 50 83 60 60 79 428 22 428
-15 0 -42 37 -61 82 -18 46 -70 128 -117 182 l-84 100 -10 467 -10 467 -65 67
c-36 37 -65 78 -65 91 0 18 -259 24 -1110 24 -990 0 -1110 -3 -1110 -31z
m2179 -188 c37 -67 27 -591 -11 -623 -63 -52 -88 27 -88 273 0 159 -8 230 -26
246 -18 14 -347 23 -1019 27 -1039 6 -1108 12 -1006 87 69 52 2123 42 2150
-10z m-2248 -143 c25 -40 15 -276 -12 -310 -42 -50 -79 19 -79 147 0 144 49
231 91 163z m2069 -28 c20 -24 20 -36 0 -60 -38 -45 -1922 -45 -1960 0 -72 87
-35 90 980 90 825 0 959 -4 980 -30z m-11 -182 c84 -84 43 -88 -969 -88 -1012
0 -1053 4 -969 88 49 49 1889 49 1938 0z m9 -196 c74 -89 19 -94 -979 -88
-964 6 -1001 9 -972 85 17 44 1914 48 1951 3z m-1984 -214 c70 -36 133 -38
1099 -38 1159 0 1087 11 1087 -159 0 -139 4 -138 -511 -145 l-459 -6 -100 -61
c-154 -95 -230 -224 -230 -393 0 -73 9 -139 19 -146 11 -6 35 -44 54 -83 21
-46 75 -98 145 -144 l112 -73 470 -7 c326 -5 474 -14 485 -30 36 -57 15 -221
-38 -297 -113 -163 -63 -156 -1127 -156 -1064 0 -1014 -7 -1127 156 l-53 76 0
760 c0 882 -10 840 174 746z m2408 -476 c143 -144 37 -566 -153 -608 -91 -20
-1004 -7 -1049 14 -173 83 -211 343 -70 484 l79 78 513 6 c479 6 516 9 549 45
47 52 62 49 131 -19z"/>
<path d="M1584 1243 c-114 -101 -50 -283 99 -283 155 0 223 161 116 275 -75
80 -132 82 -215 8z"/>
</g>
</svg>
