<?xml version="1.0" standalone="no"?>
<!DOCTYPE svg PUBLIC "-//W3C//DTD SVG 20010904//EN"
 "http://www.w3.org/TR/2001/REC-SVG-20010904/DTD/svg10.dtd">
<svg version="1.0" xmlns="http://www.w3.org/2000/svg"
 width="150.000000pt" height="150.000000pt" viewBox="0 0 150.000000 150.000000"
 preserveAspectRatio="xMidYMid meet">
<metadata>
Created by potrace 1.10, written by Peter Selinger 2001-2011
</metadata>
<g transform="translate(0.000000,150.000000) scale(0.050000,-0.050000)"
fill="#000000" stroke="none">
<path d="M1160 2972 c0 -28 -67 -57 -194 -82 -35 -7 -74 -25 -87 -41 -13 -16
-34 -29 -47 -29 -127 0 -558 -424 -651 -640 -11 -27 -30 -63 -40 -80 -11 -16
-33 -82 -51 -145 -20 -74 -42 -115 -61 -115 -24 0 -29 -54 -29 -340 0 -281 5
-340 28 -340 28 0 57 -67 82 -194 7 -35 25 -74 41 -87 16 -13 29 -35 29 -47 0
-129 524 -652 652 -652 13 0 34 -13 47 -29 13 -16 52 -34 87 -41 127 -25 194
-54 194 -82 0 -23 59 -28 340 -28 278 0 340 5 340 28 0 28 97 72 158 72 91 0
398 200 558 364 122 124 264 322 264 368 0 13 13 34 29 47 16 13 34 52 41 87
25 127 54 194 82 194 23 0 28 59 28 340 0 281 -5 340 -28 340 -28 0 -57 67
-82 194 -7 35 -25 74 -41 87 -16 13 -29 35 -29 47 0 129 -524 652 -652 652
-13 0 -34 13 -47 29 -13 16 -52 34 -87 41 -127 25 -194 54 -194 82 0 23 -59
28 -340 28 -281 0 -340 -5 -340 -28z m44 -236 c-13 -13 -24 -54 -24 -90 0 -45
-9 -66 -29 -66 -40 0 -101 -118 -74 -145 29 -29 58 -3 73 65 7 33 26 60 42 60
15 0 28 10 28 22 0 44 184 202 207 179 33 -33 44 -574 12 -612 -14 -17 -62
-30 -116 -30 -197 -3 -202 -42 -11 -70 145 -21 148 -26 148 -257 0 -261 10
-252 -300 -252 -293 0 -299 4 -301 159 -3 229 -41 225 -68 -7 -17 -150 -21
-152 -313 -152 -296 0 -303 4 -278 170 20 128 97 346 144 408 20 26 36 58 36
71 0 62 136 157 208 145 87 -14 103 7 63 83 -33 64 -14 85 213 232 119 78 403
150 340 87z m485 -44 c50 -49 91 -98 91 -110 0 -12 13 -22 28 -22 16 0 35 -27
42 -60 15 -68 44 -94 73 -65 25 25 -27 135 -72 152 -18 7 -31 36 -31 71 0 33
-9 65 -20 72 -11 7 -20 20 -20 29 0 30 262 -46 338 -98 29 -19 90 -60 137 -90
123 -81 134 -99 95 -159 -45 -67 -25 -90 66 -78 139 19 333 -297 384 -624 25
-166 18 -170 -278 -170 -292 0 -296 2 -313 152 -27 232 -65 236 -68 7 -2 -155
-8 -159 -301 -159 -310 0 -300 -9 -300 252 0 231 3 236 150 257 169 25 162 70
-11 71 -133 0 -139 12 -139 303 0 373 15 399 149 269z m-931 -1259 c12 -15 27
-71 33 -125 27 -232 65 -236 68 -7 2 155 8 159 301 159 316 0 300 16 300 -302
0 -290 2 -287 -165 -307 -167 -20 -121 -71 65 -71 92 0 104 -36 97 -288 -9
-291 -24 -310 -146 -186 -50 51 -91 102 -91 113 0 12 -13 21 -28 21 -16 0 -35
27 -42 60 -15 68 -44 94 -73 65 -25 -25 27 -135 72 -152 18 -7 31 -36 31 -68
0 -32 11 -68 24 -81 67 -67 -222 8 -341 89 -38 26 -76 47 -84 47 -19 0 -99
126 -99 155 0 12 33 29 73 38 101 24 112 67 17 67 -58 0 -76 -9 -85 -42 -13
-50 -135 -38 -179 19 -30 39 -104 149 -158 233 -93 146 -181 485 -145 555 24
46 517 53 555 8z m1358 3 c13 -13 25 -74 25 -135 3 -229 41 -225 68 7 17 150
21 152 313 152 296 0 303 -4 278 -170 -19 -120 -95 -337 -148 -420 -54 -84
-128 -194 -158 -233 -44 -57 -166 -69 -179 -19 -9 33 -27 42 -85 42 -95 0 -84
-43 17 -67 40 -9 73 -26 73 -38 0 -29 -80 -155 -99 -155 -8 0 -47 -22 -86 -48
-39 -26 -121 -63 -182 -80 -61 -18 -125 -38 -142 -44 -20 -8 -31 -1 -31 20 0
18 9 32 20 32 11 0 20 32 20 70 0 48 9 70 29 70 40 0 101 118 74 145 -29 29
-56 4 -70 -65 -7 -35 -25 -60 -42 -60 -17 0 -31 -9 -31 -21 0 -11 -41 -62 -91
-113 -122 -124 -137 -105 -146 186 -8 271 -4 278 157 296 152 18 154 43 5 62
-63 7 -126 23 -140 34 -34 29 -35 518 -1 552 33 33 519 33 552 0z"/>
<path d="M993 2387 c-7 -8 -13 -29 -13 -48 0 -70 -50 -84 -169 -47 -115 36
-144 31 -124 -21 7 -20 37 -31 81 -31 72 0 111 -66 112 -190 1 -95 35 -96 77
-3 33 76 50 93 92 93 57 0 64 31 20 89 -19 26 -25 61 -17 105 12 64 -19 92
-59 53z"/>
<path d="M1948 2336 c8 -46 3 -81 -17 -107 -44 -58 -37 -89 20 -89 42 0 59
-17 92 -92 49 -110 56 -105 85 56 l22 126 80 10 c55 7 82 21 86 45 9 43 -22
44 -143 3 -104 -36 -146 -20 -157 58 -3 24 -23 47 -44 51 -32 6 -36 -2 -24
-61z"/>
<path d="M892 1020 c-7 -28 -10 -95 -7 -150 2 -55 -4 -116 -13 -135 -12 -25
-6 -38 21 -48 20 -7 61 -35 91 -62 l53 -50 32 76 c38 92 31 117 -42 152 -43
21 -59 46 -70 112 -21 123 -50 170 -65 105z"/>
<path d="M2070 1021 c-6 -11 -19 -59 -27 -106 -11 -66 -27 -91 -70 -112 -73
-35 -80 -60 -42 -152 l32 -76 53 50 c30 27 71 55 91 62 27 10 33 23 21 48 -9
19 -15 91 -12 159 5 114 -17 173 -46 127z"/>
</g>
</svg>
